<svg width="274" height="244" viewBox="0 0 274 244" fill="none" xmlns="http://www.w3.org/2000/svg">
<path d="M137.327 244C212.81 244 274 239.611 274 234.197C274 228.783 212.81 224.395 137.327 224.395C61.8448 224.395 0.654297 228.783 0.654297 234.197C0.654297 239.611 61.8448 244 137.327 244Z" fill="#DD730A" fill-opacity="0.2"/>
<path d="M242.596 236.657C242.787 236.658 242.976 236.624 243.154 236.557C243.342 236.491 243.514 236.388 243.66 236.257C243.805 236.125 243.922 235.966 244.001 235.79C244.081 235.614 244.123 235.424 244.124 235.232C244.125 235.041 244.086 234.85 244.008 234.674L213.658 160.886C213.51 160.528 213.22 160.241 212.85 160.087C212.481 159.934 212.063 159.927 211.689 160.069C211.314 160.21 211.014 160.488 210.854 160.841C210.693 161.195 210.686 161.594 210.834 161.952L241.184 235.74C241.297 236.01 241.492 236.242 241.743 236.405C241.995 236.569 242.292 236.656 242.596 236.657Z" fill="#121F3E"/>
<path d="M162.18 236.657C162.485 236.661 162.784 236.576 163.037 236.411C163.29 236.247 163.483 236.013 163.592 235.74L193.957 161.981C194.03 161.803 194.066 161.614 194.063 161.423C194.059 161.233 194.017 161.045 193.937 160.87C193.858 160.695 193.743 160.536 193.6 160.404C193.457 160.271 193.288 160.167 193.102 160.097C192.917 160.027 192.719 159.993 192.519 159.996C192.32 159.999 192.123 160.04 191.941 160.116C191.758 160.192 191.592 160.301 191.454 160.438C191.315 160.575 191.206 160.737 191.133 160.915L160.768 234.673C160.69 234.851 160.651 235.041 160.653 235.234C160.655 235.426 160.697 235.616 160.778 235.792C160.858 235.968 160.975 236.126 161.122 236.258C161.268 236.39 161.441 236.491 161.63 236.557C161.804 236.625 161.991 236.659 162.18 236.657Z" fill="#121F3E"/>
<path d="M176.226 202.529C176.395 202.53 176.563 202.503 176.724 202.45L222.71 187.032C222.898 186.969 223.071 186.871 223.219 186.744C223.367 186.617 223.488 186.463 223.574 186.292C223.661 186.12 223.711 185.934 223.722 185.744C223.733 185.554 223.705 185.363 223.639 185.184C223.573 185.004 223.471 184.838 223.338 184.697C223.205 184.555 223.044 184.439 222.865 184.357C222.686 184.274 222.491 184.226 222.292 184.216C222.093 184.205 221.894 184.232 221.706 184.295L175.72 199.714C175.326 199.778 174.975 199.989 174.743 200.301C174.512 200.613 174.42 201 174.487 201.377C174.554 201.754 174.775 202.09 175.101 202.312C175.427 202.533 175.831 202.621 176.226 202.557V202.529Z" fill="#121F3E"/>
<path d="M228.559 202.528C228.754 202.56 228.954 202.554 229.147 202.511C229.34 202.469 229.522 202.39 229.683 202.28C229.844 202.17 229.981 202.031 230.086 201.871C230.191 201.71 230.262 201.531 230.294 201.345C230.327 201.158 230.321 200.967 230.276 200.782C230.232 200.598 230.15 200.424 230.035 200.27C229.92 200.116 229.775 199.985 229.607 199.884C229.439 199.784 229.252 199.716 229.057 199.685L183.071 184.266C182.691 184.139 182.275 184.161 181.912 184.328C181.55 184.494 181.272 184.792 181.139 185.155C181.006 185.518 181.029 185.916 181.203 186.263C181.377 186.61 181.688 186.876 182.068 187.003L228.054 202.422C228.214 202.485 228.385 202.521 228.559 202.528Z" fill="#121F3E"/>
<path d="M185.88 236.657C186.068 236.658 186.255 236.625 186.43 236.557C186.617 236.489 186.787 236.386 186.931 236.254C187.075 236.121 187.19 235.962 187.269 235.786C187.347 235.61 187.387 235.421 187.388 235.23C187.388 235.039 187.348 234.85 187.27 234.674L156.942 160.886C156.794 160.528 156.503 160.241 156.134 160.087C155.765 159.934 155.347 159.927 154.972 160.069C154.598 160.21 154.297 160.488 154.137 160.841C153.977 161.195 153.97 161.594 154.118 161.952L184.468 235.74C184.576 236.013 184.77 236.247 185.023 236.412C185.275 236.576 185.575 236.661 185.88 236.657Z" fill="#121F3E"/>
<path d="M105.461 236.657C105.765 236.656 106.062 236.569 106.314 236.405C106.566 236.242 106.76 236.01 106.873 235.74L137.223 161.981C137.297 161.803 137.333 161.614 137.329 161.423C137.326 161.233 137.283 161.045 137.204 160.87C137.125 160.695 137.01 160.536 136.867 160.404C136.723 160.271 136.554 160.167 136.369 160.097C136.183 160.027 135.985 159.993 135.786 159.996C135.587 159.999 135.39 160.04 135.207 160.116C135.024 160.192 134.859 160.301 134.72 160.438C134.582 160.575 134.473 160.737 134.399 160.915L104.034 234.673C103.957 234.85 103.917 235.04 103.918 235.232C103.92 235.424 103.961 235.614 104.041 235.79C104.121 235.966 104.237 236.125 104.383 236.256C104.529 236.388 104.701 236.491 104.889 236.557C105.071 236.626 105.265 236.66 105.461 236.657Z" fill="#121F3E"/>
<path d="M119.501 202.529C119.673 202.531 119.844 202.504 120.006 202.45L165.993 187.032C166.372 186.905 166.683 186.638 166.857 186.292C167.031 185.945 167.055 185.547 166.922 185.184C166.788 184.821 166.51 184.523 166.148 184.357C165.785 184.19 165.369 184.168 164.989 184.295L119.003 199.714C118.609 199.777 118.257 199.987 118.025 200.298C117.793 200.61 117.7 200.996 117.766 201.374C117.832 201.751 118.052 202.087 118.377 202.309C118.703 202.531 119.107 202.62 119.501 202.557V202.529Z" fill="#121F3E"/>
<path d="M171.835 202.528C172.229 202.592 172.634 202.504 172.96 202.283C173.286 202.061 173.507 201.725 173.574 201.348C173.641 200.971 173.548 200.584 173.317 200.272C173.086 199.96 172.734 199.749 172.34 199.685L126.332 184.295C126.144 184.232 125.945 184.205 125.746 184.215C125.547 184.226 125.353 184.274 125.173 184.356C124.994 184.439 124.833 184.554 124.7 184.696C124.567 184.838 124.465 185.003 124.399 185.183C124.333 185.363 124.305 185.553 124.316 185.743C124.327 185.933 124.377 186.12 124.464 186.291C124.55 186.463 124.671 186.617 124.819 186.744C124.967 186.871 125.14 186.968 125.328 187.031L171.314 202.45C171.482 202.505 171.658 202.532 171.835 202.528Z" fill="#121F3E"/>
<path d="M109.981 163.239C109.981 163.239 173.966 198.271 214.579 169.936C216.226 168.788 217.806 167.557 219.313 166.246C219.841 165.791 220.361 165.315 220.881 164.825C255.475 132.452 211.324 80.5591 211.324 80.5591C210.17 81.033 209.028 81.5069 207.899 81.9808L206.695 82.4926C143.467 109.754 109.981 163.239 109.981 163.239Z" fill="#DD730A"/>
<path d="M219.017 101.408C224.293 111.531 230.097 126.672 227.734 141.33C225.675 154.126 220.86 163.324 214.55 169.935C216.197 168.788 217.777 167.556 219.284 166.246C224.204 159.535 227.459 151.275 229.042 141.522C230.112 134.89 229.659 127.625 227.697 119.926C225.943 113.311 223.425 106.902 220.191 100.818C216.727 94.1804 212.612 87.8727 207.899 81.9805L206.695 82.4923C206.715 82.5763 206.756 82.6544 206.814 82.7198C211.501 88.5594 215.587 94.8179 219.017 101.408Z" fill="#DD730A"/>
<path d="M199.003 111.837C199.003 111.837 211.354 143.996 199.605 158.505C187.856 173.014 160.664 179.916 121.292 157.936L199.003 111.837Z" fill="#DD730A"/>
<path d="M177.087 7.80936C177.556 14.8682 180.112 24.9482 183.895 34.5306C188.948 47.3261 196.179 59.2757 203.499 61.9627C216.296 66.6615 222.821 57.9606 222.821 57.9606C203.908 61.5789 203.038 41.9591 204.346 27.2798C205.654 12.6006 201.44 1.04907 190.226 0.0751863C182.475 -0.593023 179.161 3.34515 177.853 5.84738C177.52 6.47099 177.263 7.12935 177.087 7.80936Z" fill="#26120C"/>
<path d="M177.087 7.80931C177.556 14.8682 180.112 24.9482 183.895 34.5306L195.785 36.2295C195.785 36.2295 201.143 24.3226 195.547 14.9037C191.363 7.84485 182.394 5.95396 177.845 5.86865C177.516 6.4858 177.262 7.13691 177.087 7.80931Z" fill="#F4AD4B"/>
<path d="M158.368 60.6553L158.293 61.1884L158.182 61.8993C158.1 62.3684 158.018 62.8518 157.929 63.321C157.751 64.2949 157.543 65.2901 157.32 66.2782C156.881 68.2686 156.368 70.259 155.833 72.2494C154.709 76.2349 153.362 80.1598 151.798 84.0071C151.01 85.9264 150.185 87.8386 149.301 89.694C148.417 91.5493 147.48 93.426 146.492 95.2529C146.247 95.7149 145.987 96.1628 145.749 96.6177C145.511 97.0727 145.251 97.5276 145.006 97.9755C144.478 98.8712 143.958 99.774 143.4 100.648C143.126 101.089 142.858 101.537 142.568 101.971L141.647 103.307L141.431 103.634L141.327 103.797V103.84C141.327 103.84 141.327 103.876 141.327 103.84L141.372 103.776C141.446 103.691 141.483 103.641 141.543 103.584C141.571 103.546 141.607 103.512 141.647 103.485C141.766 103.385 141.714 103.485 141.587 103.556C141.096 103.912 140.571 104.224 140.019 104.487C139.276 104.842 138.473 105.198 137.589 105.546C135.805 106.257 133.814 106.868 131.77 107.451C129.727 108.034 127.594 108.567 125.439 109.065C123.283 109.563 121.099 110.032 118.891 110.487C114.47 111.361 109.974 112.143 105.478 112.847C103.218 113.207 100.957 113.548 98.6925 113.87L95.2963 114.332L93.6019 114.56L91.9521 114.773L93.2824 129.488L95.118 129.388L96.9164 129.282C98.1129 129.204 99.3019 129.111 100.491 129.019C102.869 128.834 105.25 128.63 107.633 128.407C112.389 127.938 117.145 127.384 121.931 126.673C126.717 125.962 131.525 125.123 136.445 123.957C138.998 123.371 141.518 122.659 143.995 121.825C145.296 121.384 146.618 120.879 148.015 120.261C149.577 119.575 151.069 118.754 152.474 117.808C153.403 117.175 154.269 116.461 155.061 115.676C155.291 115.463 155.521 115.207 155.752 114.965C155.982 114.723 156.22 114.425 156.45 114.105L156.71 113.764L156.844 113.572L157.112 113.202L158.189 111.702C158.546 111.205 158.888 110.693 159.23 110.188C159.936 109.179 160.59 108.148 161.258 107.117C161.593 106.605 161.898 106.079 162.224 105.56C162.551 105.041 162.871 104.523 163.176 103.996L164.097 102.418C164.402 101.885 164.692 101.352 164.989 100.819C165.591 99.7597 166.133 98.6863 166.706 97.5987C167.806 95.4306 168.861 93.2411 169.834 91.0233C171.767 86.5741 173.451 82.0301 174.88 77.4103C175.579 75.0929 176.208 72.7447 176.768 70.3656C177.043 69.1714 177.303 67.9771 177.511 66.7474C177.63 66.136 177.742 65.5176 177.846 64.8849L178.002 63.9181L178.076 63.4063L178.15 62.7879L158.368 60.6553Z" fill="#F4AD4B"/>
<path d="M146.914 108.943C147.002 108.958 147.093 108.954 147.179 108.93C147.266 108.907 147.345 108.865 147.412 108.808C147.523 108.709 147.589 108.573 147.596 108.428C147.603 108.283 147.55 108.141 147.449 108.033C145.807 106.329 144.036 104.742 142.151 103.285C142.091 103.241 142.023 103.209 141.951 103.19C141.878 103.171 141.802 103.166 141.728 103.175C141.653 103.185 141.581 103.208 141.516 103.244C141.451 103.28 141.394 103.327 141.348 103.384C141.301 103.44 141.266 103.505 141.245 103.574C141.224 103.643 141.218 103.716 141.227 103.788C141.236 103.859 141.26 103.928 141.297 103.991C141.335 104.053 141.385 104.108 141.445 104.152C143.278 105.571 145.001 107.116 146.602 108.773C146.685 108.86 146.794 108.919 146.914 108.943Z" fill="#D57635"/>
<path d="M145.993 105.034C146.135 105.057 146.281 105.029 146.403 104.956C146.525 104.882 146.615 104.768 146.654 104.636C146.693 104.496 146.673 104.348 146.598 104.223C146.522 104.098 146.399 104.006 146.253 103.968C146.253 103.968 144.061 103.392 142.203 103.051C142.13 103.036 142.054 103.036 141.981 103.049C141.907 103.063 141.838 103.091 141.775 103.13C141.713 103.17 141.66 103.221 141.618 103.281C141.577 103.34 141.548 103.407 141.534 103.477C141.506 103.62 141.537 103.769 141.622 103.89C141.707 104.011 141.838 104.095 141.987 104.124C143.801 104.458 145.926 105.013 145.948 105.02L145.993 105.034Z" fill="#D57635"/>
<path d="M102.41 130.44C102.465 130.447 102.52 130.447 102.574 130.44C102.724 130.425 102.863 130.354 102.959 130.243C103.055 130.131 103.101 129.987 103.087 129.843L101.333 112.547C101.318 112.402 101.243 112.269 101.126 112.176C101.008 112.083 100.857 112.039 100.705 112.053C100.553 112.068 100.413 112.139 100.316 112.251C100.22 112.364 100.173 112.509 100.188 112.654L101.95 129.949C101.958 130.069 102.008 130.182 102.091 130.271C102.175 130.36 102.287 130.419 102.41 130.44Z" fill="#D57635"/>
<path d="M93.3485 126.466H93.5194L101.806 125.564C101.88 125.555 101.952 125.533 102.018 125.498C102.084 125.463 102.141 125.415 102.188 125.359C102.235 125.303 102.269 125.238 102.289 125.169C102.31 125.1 102.316 125.027 102.307 124.956C102.298 124.884 102.275 124.815 102.238 124.753C102.202 124.69 102.152 124.635 102.093 124.59C102.034 124.545 101.967 124.512 101.894 124.493C101.822 124.473 101.746 124.468 101.672 124.476L93.3856 125.386C93.3106 125.393 93.2378 125.414 93.1715 125.449C93.1052 125.483 93.0468 125.53 92.9997 125.586C92.9527 125.642 92.9178 125.707 92.8973 125.776C92.8768 125.846 92.871 125.918 92.8803 125.99C92.8966 126.106 92.9505 126.215 93.0344 126.3C93.1184 126.385 93.2282 126.444 93.3485 126.466Z" fill="#D57635"/>
<path d="M95.8624 120.879C95.7667 121.111 95.7452 121.366 95.8005 121.61C95.8558 121.854 95.9855 122.077 96.1731 122.251C96.3608 122.425 96.598 122.542 96.855 122.587C97.1119 122.632 97.377 122.603 97.6169 122.504C97.8568 122.405 98.0607 122.24 98.2029 122.031C98.3451 121.821 98.4193 121.576 98.416 121.326C98.4128 121.076 98.3322 120.833 98.1846 120.627C98.037 120.421 97.8289 120.261 97.5865 120.168C97.4245 120.106 97.2513 120.075 97.0768 120.077C96.9023 120.079 96.73 120.114 96.5697 120.18C96.4095 120.246 96.2644 120.342 96.143 120.462C96.0216 120.582 95.9262 120.723 95.8624 120.879Z" fill="#D57635"/>
<path d="M84.9224 203.964L82.1059 217.67L69.0413 221.978C63.5494 223.79 50.4625 223.698 49.0431 227.224C48.129 229.442 59.1946 232.107 64.0696 232.313C68.9447 232.52 80.7682 235.456 87.6201 235.313C94.4719 235.171 93.0748 224.764 94.2044 221.665C95.334 218.565 97.9201 205.315 97.9201 205.315L84.9224 203.964Z" fill="#F69D84"/>
<path d="M76.8601 217.115C76.8601 217.115 75.136 226.612 79.8327 234.681C79.8327 234.681 52.8638 233.771 47.8104 228.141C45.9376 226.065 47.149 224.181 50.2554 222.575C50.6418 222.368 51.0654 222.169 51.5187 221.97C52.7425 221.458 53.9954 221.012 55.2716 220.634L56.4161 220.307C57.5754 219.987 58.809 219.689 60.0947 219.411L61.2614 219.163C62.4059 218.935 63.5949 218.722 64.8137 218.516L65.9804 218.331C67.1249 218.153 68.2916 217.99 69.4732 217.84L70.6102 217.705C71.7621 217.57 72.9289 217.449 74.1031 217.343L75.2103 217.243C75.7528 217.193 76.3028 217.151 76.8601 217.115Z" fill="#DD730A"/>
<path d="M51.5019 221.97C50.841 223.966 50.841 226.109 51.5019 228.105C51.5427 228.218 51.5427 228.34 51.5019 228.453C51.4774 228.523 51.4365 228.587 51.3825 228.64C51.3284 228.693 51.2626 228.734 51.1898 228.759C51.0597 228.805 50.9157 228.801 50.7891 228.746C50.6625 228.692 50.5635 228.591 50.5135 228.467C49.8669 226.562 49.7795 224.524 50.2609 222.574C50.625 222.368 51.0486 222.169 51.5019 221.97Z" fill="#DD730A"/>
<path d="M56.3999 220.307C56.4294 220.394 56.4294 220.489 56.3999 220.577C55.5119 223.203 55.5354 226.033 56.4667 228.645C56.4907 228.7 56.503 228.759 56.503 228.819C56.503 228.879 56.4907 228.938 56.4667 228.993C56.4425 229.063 56.4026 229.126 56.35 229.179C56.2973 229.231 56.2332 229.273 56.1621 229.299C56.0318 229.346 55.8876 229.343 55.7599 229.29C55.6323 229.236 55.5313 229.138 55.4784 229.015C54.4932 226.301 54.4204 223.36 55.2703 220.605L56.3999 220.307Z" fill="#DD730A"/>
<path d="M61.2458 219.177C61.2571 219.236 61.2571 219.296 61.2458 219.354V219.397C59.4474 224.373 61.4464 229.207 61.4613 229.257C61.4852 229.312 61.4975 229.371 61.4975 229.431C61.4975 229.491 61.4852 229.55 61.4613 229.605C61.4388 229.674 61.4004 229.737 61.3489 229.79C61.2975 229.843 61.2343 229.884 61.164 229.911C61.1002 229.936 61.0317 229.949 60.9625 229.949C60.8934 229.949 60.825 229.935 60.7613 229.909C60.6977 229.884 60.6401 229.846 60.5918 229.799C60.5435 229.751 60.5057 229.695 60.4803 229.634C59.2224 226.355 59.0948 222.778 60.1162 219.426L61.2458 219.177Z" fill="#DD730A"/>
<path d="M65.9625 218.331C63.9708 224.053 66.3638 229.747 66.3861 229.811C66.434 229.925 66.434 230.053 66.3861 230.167C66.3621 230.234 66.3232 230.296 66.2718 230.348C66.2205 230.399 66.158 230.439 66.0888 230.465C66.0254 230.491 65.9574 230.504 65.8886 230.505C65.8198 230.505 65.7516 230.492 65.688 230.467C65.6244 230.442 65.5667 230.405 65.5181 230.358C65.4696 230.312 65.4311 230.256 65.4051 230.195C63.9378 226.458 63.7223 222.376 64.7883 218.516L65.9625 218.331Z" fill="#DD730A"/>
<path d="M70.5943 217.706C68.6621 224.061 71.3375 230.316 71.3375 230.38C71.3854 230.494 71.3854 230.622 71.3375 230.736C71.314 230.803 71.2761 230.865 71.2262 230.918C71.1763 230.97 71.1155 231.012 71.0476 231.041C70.9833 231.067 70.9142 231.08 70.8446 231.08C70.7749 231.08 70.7059 231.066 70.6417 231.04C70.5774 231.015 70.5192 230.977 70.4702 230.93C70.4213 230.882 70.3826 230.826 70.3565 230.764C70.2376 230.494 67.6217 224.366 69.4276 217.841L70.5943 217.706Z" fill="#DD730A"/>
<path d="M75.1941 217.244C73.4031 224.175 76.3014 230.878 76.3312 230.949C76.3796 231.065 76.3796 231.195 76.3312 231.312C76.3076 231.378 76.2696 231.439 76.2196 231.491C76.1697 231.542 76.1089 231.583 76.0413 231.61C75.9774 231.636 75.9088 231.649 75.8395 231.65C75.7701 231.65 75.7014 231.637 75.6372 231.612C75.573 231.587 75.5147 231.55 75.4654 231.503C75.4162 231.457 75.377 231.401 75.3502 231.34C75.2164 231.034 72.3776 224.445 74.0794 217.343L75.1941 217.244Z" fill="#DD730A"/>
<path d="M78.0626 230.849C78.0626 230.849 87.2108 232.398 93.2675 230.522C93.2675 230.522 94.189 233.792 91.6177 235.924C91.6177 235.924 70.1852 235.924 61.7133 234.247C53.2414 232.569 47.3408 230.877 47.4522 227.714L78.0626 230.849Z" fill="#DD730A"/>
<path d="M77.8925 231.467C77.8555 231.567 77.7871 231.654 77.6966 231.715C77.6061 231.776 77.4979 231.809 77.3871 231.809C62.7991 231.737 48.4042 228.332 48.2333 228.297C48.166 228.281 48.1026 228.253 48.0467 228.213C47.9908 228.174 47.9436 228.125 47.9077 228.068C47.8718 228.011 47.848 227.948 47.8376 227.882C47.8271 227.817 47.8303 227.75 47.8469 227.686C47.8635 227.621 47.8932 227.561 47.9343 227.507C47.9754 227.454 48.0271 227.408 48.0864 227.374C48.1457 227.34 48.2116 227.317 48.2801 227.307C48.3487 227.297 48.4186 227.3 48.486 227.316C48.6272 227.351 62.9328 230.728 77.3946 230.799C77.5345 230.799 77.6687 230.852 77.7676 230.947C77.8666 231.042 77.9222 231.17 77.9222 231.304C77.9202 231.359 77.9102 231.414 77.8925 231.467Z" fill="#DD730A"/>
<path d="M42.5038 197.709L36.5586 205.528C36.5586 205.528 28.2873 207.213 21.7847 205.649C16.1516 204.292 5.2719 197.389 2.04663 199.579C0.0178231 200.965 7.75402 208.983 11.7076 211.699C15.6611 214.414 23.8953 223.073 29.7141 226.534C35.533 229.996 40.8614 221.061 43.0314 218.544C46.8735 214.144 52.1647 207.171 52.1647 207.171L42.5038 197.709Z" fill="#F69D84"/>
<path d="M31.1314 205.67C31.1314 205.67 24.2573 212.729 23.5736 221.935C23.5736 221.935 1.50941 207.064 0.491297 199.706C0.119721 196.998 2.20798 196.052 5.69335 196.33C6.13924 196.33 6.60743 196.415 7.09791 196.486C8.41537 196.691 9.71836 196.973 10.9995 197.332L12.1513 197.652C13.3007 197.993 14.4972 198.386 15.7408 198.832L16.8555 199.23C17.9479 199.635 19.0849 200.076 20.1997 200.545L21.2847 201C22.3474 201.448 23.4175 201.924 24.4876 202.422L25.5206 202.905C26.5685 203.396 27.6163 203.9 28.6493 204.426L29.6377 204.924L31.1314 205.67Z" fill="#DD730A"/>
<path d="M7.12837 196.465C5.42956 197.786 4.19711 199.576 3.5984 201.59C3.57435 201.707 3.50541 201.811 3.40517 201.882C3.31904 201.944 3.21515 201.979 3.10747 201.983C2.9998 201.986 2.8935 201.959 2.80286 201.903C2.71222 201.847 2.6416 201.766 2.60048 201.671C2.55936 201.576 2.54972 201.471 2.57285 201.37C3.11643 199.438 4.20675 197.686 5.72381 196.309C6.1697 196.337 6.63789 196.429 7.12837 196.465Z" fill="#DD730A"/>
<path d="M12.1825 197.631C12.1506 197.72 12.0909 197.796 12.0116 197.851C9.76897 199.588 8.17359 201.972 7.46349 204.647C7.45026 204.713 7.42345 204.775 7.38468 204.83C7.3459 204.885 7.29594 204.932 7.23774 204.969C7.17954 205.005 7.11428 205.03 7.04583 205.042C6.97738 205.054 6.90714 205.053 6.83924 205.038C6.77094 205.025 6.70599 205 6.64823 204.963C6.59047 204.926 6.54107 204.878 6.50296 204.822C6.46485 204.767 6.4388 204.704 6.42636 204.639C6.41391 204.573 6.41533 204.506 6.43051 204.441C7.15142 201.655 8.76821 199.157 11.0529 197.297L12.1825 197.631Z" fill="#DD730A"/>
<path d="M16.8851 199.209C16.8514 199.258 16.8115 199.304 16.7662 199.344H16.7216C14.0104 201.498 12.0997 204.433 11.2743 207.711C11.2506 207.83 11.1818 207.936 11.081 208.009C11.0209 208.052 10.9524 208.083 10.8797 208.1C10.807 208.117 10.7314 208.12 10.6575 208.109C10.589 208.096 10.5238 208.07 10.4657 208.033C10.4076 207.996 10.3578 207.949 10.3191 207.893C10.2804 207.838 10.2536 207.775 10.2402 207.71C10.2269 207.644 10.2272 207.577 10.2413 207.512C11.0633 204.112 13.0007 201.053 15.7703 198.782L16.8851 199.209Z" fill="#DD730A"/>
<path d="M21.3152 200.979C16.3732 204.732 15.1247 210.746 15.1099 210.81C15.1005 210.871 15.0786 210.929 15.0454 210.982C15.0122 211.034 14.9685 211.08 14.9167 211.116C14.8567 211.159 14.7882 211.19 14.7155 211.207C14.6427 211.224 14.567 211.227 14.4931 211.215C14.3686 211.181 14.2615 211.104 14.1918 210.999C14.1221 210.895 14.0945 210.769 14.1141 210.647C15.0208 206.751 17.1711 203.221 20.2673 200.545L21.3152 200.979Z" fill="#DD730A"/>
<path d="M25.5513 202.877C20.3046 207.185 18.967 213.817 18.9521 213.888C18.9276 214.01 18.856 214.12 18.7515 214.194C18.6669 214.256 18.5648 214.292 18.4585 214.297C18.3523 214.302 18.2468 214.277 18.156 214.224C18.0652 214.171 17.9932 214.093 17.9496 214C17.906 213.907 17.8928 213.804 17.9117 213.703C17.9711 213.412 19.2791 206.922 24.5183 202.394L25.5513 202.877Z" fill="#DD730A"/>
<path d="M29.6682 204.896C24.206 209.758 22.8015 216.888 22.7866 216.981C22.7647 217.102 22.6957 217.211 22.5934 217.286C22.5345 217.329 22.4674 217.359 22.3959 217.376C22.3244 217.394 22.25 217.397 22.1772 217.386C22.1082 217.375 22.0421 217.35 21.9829 217.315C21.9237 217.279 21.8726 217.232 21.8324 217.177C21.7923 217.122 21.764 217.06 21.7492 216.995C21.7344 216.929 21.7334 216.862 21.7462 216.796C21.8131 216.476 23.1954 209.467 28.6798 204.413L29.6682 204.896Z" fill="#DD730A"/>
<path d="M24.296 217.755C24.296 217.755 31.0661 223.84 37.212 225.432C37.212 225.432 36.1195 228.659 32.7531 229.1C32.7531 229.1 14.8134 217.876 8.66754 212.039C2.52168 206.203 -1.43931 201.704 0.492879 199.109L24.296 217.755Z" fill="#DD730A"/>
<path d="M23.7755 218.217C23.6853 218.278 23.5775 218.311 23.4671 218.311C23.3567 218.311 23.2489 218.278 23.1587 218.217C10.9785 210.526 0.864177 200.133 0.752704 200.026C0.696409 199.981 0.650515 199.926 0.617945 199.863C0.585374 199.8 0.566835 199.731 0.563526 199.661C0.560217 199.591 0.572209 199.521 0.598724 199.456C0.625239 199.391 0.665697 199.331 0.717529 199.282C0.769361 199.232 0.831429 199.193 0.899767 199.168C0.968105 199.143 1.04122 199.131 1.11445 199.134C1.18768 199.137 1.25941 199.155 1.32508 199.186C1.39075 199.218 1.44891 199.261 1.49586 199.315C1.59246 199.415 11.6399 209.722 23.7161 217.343C23.8329 217.419 23.9139 217.536 23.9417 217.669C23.9694 217.802 23.9418 217.94 23.8647 218.054C23.8408 218.111 23.8109 218.166 23.7755 218.217Z" fill="#DD730A"/>
<path d="M88.92 126.765C93.5573 123.829 158.605 120.367 177.89 129.608C179.376 134.343 147.421 146.768 138.079 155.491C110.419 154.695 93.7059 160.531 93.7059 160.531C93.7059 160.531 79.9279 179.774 72.7045 186.434C65.4811 193.095 50.41 212.495 50.41 212.495L36.9292 202.983C36.9292 202.983 76.2865 134.734 88.92 126.765Z" fill="#121F3E"/>
<path opacity="0.6" d="M55.984 205.031C56.1128 205.054 56.246 205.034 56.3613 204.974C56.4766 204.915 56.567 204.819 56.6175 204.703C56.668 204.588 56.6754 204.459 56.6385 204.339C56.6017 204.218 56.5228 204.114 56.415 204.042L42.5032 194.929C42.4413 194.886 42.3711 194.856 42.2966 194.839C42.2221 194.822 42.1449 194.82 42.0696 194.833C41.9942 194.845 41.9222 194.872 41.8579 194.911C41.7935 194.951 41.7381 195.002 41.6949 195.063C41.6517 195.123 41.6215 195.191 41.6063 195.263C41.591 195.334 41.5909 195.408 41.606 195.48C41.6211 195.552 41.651 195.62 41.6941 195.68C41.7371 195.741 41.7924 195.792 41.8567 195.832L55.7685 204.959C55.8349 204.996 55.9081 205.02 55.984 205.031Z" fill="#8E8E8E"/>
<path opacity="0.6" d="M52.3726 202.635C52.4811 202.657 52.594 202.647 52.6971 202.608C52.8002 202.569 52.8889 202.502 52.9522 202.415C53.0191 202.322 54.7135 200.069 66.2175 188.027C78.747 174.911 92.6365 155.235 92.7777 155.043C92.8624 154.922 92.8936 154.774 92.8644 154.632C92.8351 154.489 92.7478 154.363 92.6216 154.282C92.4955 154.201 92.3408 154.171 92.1917 154.199C92.0426 154.227 91.9112 154.311 91.8265 154.431C91.6927 154.623 77.8404 174.236 65.3703 187.287C53.74 199.464 52.0828 201.697 51.9936 201.789C51.9498 201.848 51.9187 201.914 51.9021 201.984C51.8855 202.054 51.8837 202.127 51.8969 202.198C51.91 202.269 51.9379 202.336 51.9787 202.397C52.0196 202.457 52.0726 202.509 52.1348 202.55C52.2068 202.594 52.2879 202.623 52.3726 202.635Z" fill="#8E8E8E"/>
<path d="M200.594 128.805C200.594 128.805 212.67 177.143 154.006 169.587C127.535 166.182 115.815 159.962 115.815 159.962C115.815 159.962 110.68 181.998 107.559 191.112C104.438 200.225 97.4147 216.212 97.4147 216.212L81.7417 213.291C81.7417 213.291 89.3516 143.839 103.531 138.735C117.71 133.631 140.792 132.103 172.644 135.053C172.607 135.053 195.555 130.084 200.594 128.805Z" fill="#121F3E"/>
<path opacity="0.5" d="M97.1039 207.803C97.2334 207.826 97.3673 207.806 97.4835 207.747C97.5996 207.687 97.6912 207.592 97.743 207.476C102.202 197.176 105.658 183.975 108.452 173.355C110.77 164.561 112.955 156.294 114.352 155.469C115.489 154.837 119.369 156.216 124.288 157.972C134.076 161.462 148.857 166.73 166.47 166.118C176.056 165.784 183.674 162.777 189.099 157.176C198.455 147.522 198.016 133.305 197.972 133.163C197.969 133.091 197.951 133.02 197.92 132.955C197.888 132.889 197.844 132.831 197.788 132.782C197.733 132.733 197.668 132.695 197.598 132.67C197.527 132.645 197.452 132.634 197.377 132.637C197.302 132.639 197.228 132.656 197.16 132.686C197.092 132.717 197.03 132.759 196.979 132.812C196.928 132.865 196.888 132.927 196.862 132.994C196.836 133.062 196.824 133.133 196.827 133.205C196.827 133.34 197.288 147.124 188.251 156.436C183.049 161.81 175.7 164.704 166.425 165.023C149.043 165.628 134.388 160.403 124.69 156.948C118.878 154.872 115.378 153.628 113.773 154.524C112.041 155.498 110.377 161.562 107.345 173.092C104.558 183.698 101.065 196.856 96.6803 207.092C96.6238 207.226 96.6249 207.376 96.6833 207.509C96.7418 207.642 96.8529 207.748 96.9924 207.803C97.0293 207.809 97.067 207.809 97.1039 207.803Z" fill="#8E8E8E"/>
<path opacity="0.5" d="M83.0547 205.209L100.578 208.102C100.652 208.114 100.728 208.112 100.802 208.096C100.875 208.08 100.945 208.051 101.006 208.009C101.068 207.968 101.12 207.915 101.16 207.854C101.2 207.793 101.227 207.725 101.24 207.654C101.254 207.584 101.253 207.511 101.237 207.441C101.221 207.371 101.191 207.304 101.148 207.245C101.105 207.186 101.05 207.136 100.987 207.098C100.924 207.059 100.853 207.033 100.779 207.021L83.2554 204.135C83.1817 204.122 83.1059 204.123 83.0325 204.138C82.9591 204.153 82.8896 204.182 82.828 204.223C82.7664 204.264 82.714 204.316 82.6738 204.377C82.6337 204.438 82.6065 204.505 82.594 204.576C82.568 204.718 82.6019 204.865 82.6882 204.983C82.7745 205.102 82.9062 205.183 83.0547 205.209Z" fill="#8E8E8E"/>
<path d="M158.959 129.545L97.1737 127.109C96.7021 127.091 96.3041 127.441 96.2846 127.892L96.0141 134.171C95.9947 134.622 96.3612 135.003 96.8328 135.022L158.618 137.457C159.09 137.476 159.488 137.125 159.507 136.674L159.778 130.396C159.797 129.944 159.43 129.564 158.959 129.545Z" fill="#4F5350"/>
<path d="M89.3532 134.726C88.1906 134.68 87.0763 134.268 86.1829 133.555C85.2895 132.842 84.6669 131.867 84.4113 130.781L74.3713 87.7811C74.231 87.1685 74.2394 86.5332 74.396 85.9241C74.5525 85.3151 74.853 84.7485 75.2743 84.2679C75.6956 83.7873 76.2265 83.4055 76.8262 83.152C77.4259 82.8984 78.0785 82.7797 78.7336 82.8051L107.159 83.9283C108.093 83.9636 108.989 84.2908 109.709 84.8595C110.43 85.4283 110.936 86.2073 111.15 87.0774L123.293 136.077L89.3532 134.726Z" fill="#8E8E8E"/>
<path d="M92.2931 109.349C92.947 112.192 95.6224 114.631 98.2383 114.851C100.854 115.071 102.489 112.967 101.828 110.152C101.166 107.337 98.4984 104.87 95.8825 104.65C93.2666 104.43 91.6317 106.534 92.2931 109.349Z" fill="#F4AD4B"/>
<path d="M97.6383 108.837C97.772 109.406 98.0693 109.875 98.2922 109.896C98.5152 109.918 98.6044 109.477 98.4706 108.908C98.3368 108.34 98.047 107.871 97.8166 107.856C97.5863 107.842 97.5119 108.283 97.6383 108.837Z" fill="#26120C"/>
<path d="M95.1166 108.631C95.2429 109.192 95.5402 109.669 95.7706 109.69C96.001 109.711 96.0753 109.264 95.9489 108.702C95.8226 108.14 95.5179 107.664 95.2875 107.643C95.0572 107.621 95.0126 108.069 95.1166 108.631Z" fill="#26120C"/>
<path d="M97.6156 112.235C99.6741 112.406 99.6295 110.252 99.6295 110.231C99.627 110.169 99.6051 110.109 99.5666 110.06C99.5282 110.011 99.475 109.973 99.414 109.953C99.3898 109.943 99.3631 109.939 99.3367 109.942C99.3103 109.945 99.2852 109.954 99.264 109.969C99.2427 109.985 99.2261 110.005 99.2159 110.028C99.2057 110.052 99.2023 110.077 99.2059 110.103C99.2059 110.181 99.2059 111.93 97.5115 111.787C95.8172 111.645 94.9848 109.818 94.9477 109.747C94.9285 109.69 94.8906 109.641 94.8398 109.606C94.7889 109.572 94.7277 109.554 94.6653 109.555C94.5612 109.555 94.5167 109.683 94.5687 109.804C94.6207 109.925 95.557 112.057 97.6156 112.235Z" fill="#26120C"/>
<path d="M111.147 87.0634L123.186 135.665L126.434 135.793L114.395 87.1914C114.18 86.3211 113.674 85.5418 112.954 84.972C112.234 84.4023 111.338 84.0733 110.404 84.0352L107.157 83.9072C108.091 83.9453 108.986 84.2743 109.706 84.8441C110.427 85.4138 110.933 86.1932 111.147 87.0634Z" fill="#4F5350"/>
<path d="M122.325 132.637C122.221 132.637 122.12 132.604 122.038 132.542C121.957 132.48 121.901 132.393 121.879 132.295L110.724 87.1629C110.697 87.0479 110.719 86.9275 110.784 86.8277C110.85 86.728 110.954 86.6568 111.073 86.6297C111.192 86.6039 111.317 86.6236 111.422 86.6847C111.526 86.7458 111.601 86.8434 111.631 86.9567L122.778 132.089C122.792 132.146 122.795 132.204 122.785 132.262C122.776 132.319 122.755 132.374 122.723 132.424C122.691 132.473 122.65 132.517 122.6 132.551C122.551 132.585 122.495 132.609 122.436 132.622L122.325 132.637Z" fill="#564C54"/>
<path d="M147.749 94.4776C147.749 94.5345 147.749 94.5771 147.793 94.6269C147.966 95.1985 148.177 95.7588 148.425 96.3045C149.66 98.901 151.329 101.288 153.367 103.37C153.642 103.662 153.805 103.818 153.805 103.818C153.805 103.818 153.805 103.818 153.805 103.875C153.805 104.046 153.761 104.209 153.746 104.394C153.659 105.227 153.527 106.055 153.352 106.875C150.922 117.573 150.32 119.365 149.339 123.936C164.009 144.16 198.766 131.336 200.616 128.834C202.207 117.993 202.207 117.993 203.894 107.508C204.696 102.446 206.866 94.8543 209.742 87.2908C209.854 86.9922 209.965 86.6937 210.084 86.3951C210.946 84.1701 211.868 81.9522 212.826 79.8267C217.047 70.5216 216.059 62.1476 210.374 58.3374C208.442 57.0436 202.511 55.3447 199.881 54.8186L197.815 54.4135C194.099 53.7381 191.215 53.3472 191.215 53.3472L173.447 53.4964C171.693 53.6884 170.125 53.8945 168.705 54.1433C167.464 54.3495 166.342 54.5912 165.324 54.8542C156.265 57.2356 155.923 61.7922 154.266 70.0026C153.772 72.319 153.142 74.6068 152.378 76.8553C152.141 77.5662 151.895 78.2344 151.635 78.9239C149.309 85.4141 146.76 91.0157 147.749 94.4776Z" fill="#F4AD4B"/>
<path d="M192.166 53.4604C192.166 53.4604 201.388 54.8751 201.388 59.9435C201.388 65.0119 182.468 64.6067 182.468 64.6067C182.468 64.6067 191.2 59.0549 192.166 53.4604Z" fill="white"/>
<path d="M173.831 53.4604C173.831 53.4604 164.579 54.8822 164.631 59.9506C164.683 65.019 177.688 65.0972 177.688 65.0972C175.949 61.3695 174.655 57.4659 173.831 53.4604Z" fill="white"/>
<path d="M173.889 52.7715L173.25 58.7854C173.128 59.8915 173.333 61.0082 173.841 62.0088C174.349 63.0093 175.14 63.8535 176.124 64.4457C177.109 65.0379 178.247 65.3543 179.41 65.359C180.573 65.3636 181.713 65.0565 182.703 64.4723C187.831 61.4795 192.431 57.3636 192.49 53.5108L173.889 52.7715Z" fill="#F69D84"/>
<path d="M153.825 103.818C153.825 103.818 153.825 103.818 153.825 103.875C153.825 104.046 153.781 104.209 153.766 104.394C157.838 105.178 162.035 105.152 166.095 104.316C172.108 103.299 178.305 104.193 183.737 106.861C183.812 106.901 183.897 106.92 183.983 106.918C184.068 106.919 184.152 106.898 184.225 106.857C184.299 106.815 184.359 106.755 184.399 106.683C184.432 106.631 184.454 106.573 184.463 106.513C184.473 106.453 184.469 106.391 184.453 106.332C184.437 106.273 184.409 106.218 184.37 106.17C184.332 106.121 184.283 106.081 184.228 106.051C178.592 103.234 172.136 102.294 165.879 103.378C160.781 104.309 156.531 104.145 153.365 103.378C153.64 103.662 153.825 103.818 153.825 103.818Z" fill="#D57635"/>
<path d="M169.833 80.7294C175.778 80.7294 187.892 72.6682 188.412 72.327C188.506 72.2519 188.567 72.1458 188.584 72.0296C188.6 71.9133 188.57 71.7955 188.501 71.6991C188.431 71.6028 188.325 71.535 188.206 71.5091C188.086 71.4832 187.961 71.5011 187.854 71.5593C187.728 71.6446 175.466 79.8195 169.84 79.7982C164.467 79.7982 163.293 74.1539 163.278 74.1113C163.268 74.0511 163.245 73.9935 163.21 73.942C163.176 73.8906 163.131 73.8463 163.078 73.8118C163.025 73.7773 162.966 73.7533 162.903 73.7412C162.841 73.7292 162.776 73.7293 162.714 73.7417C162.65 73.7527 162.59 73.7757 162.536 73.8094C162.482 73.843 162.436 73.8866 162.4 73.9376C162.364 73.9886 162.339 74.0459 162.327 74.1063C162.314 74.1666 162.314 74.2287 162.327 74.289C162.327 74.3388 163.657 80.7081 169.833 80.7294Z" fill="#D57635"/>
<path d="M150.624 116.159C150.763 116.184 150.906 116.159 151.027 116.09C151.147 116.02 151.237 115.911 151.278 115.782C152.668 111.559 154.34 104.067 154.355 103.989C154.377 103.886 154.368 103.778 154.329 103.68C154.289 103.582 154.221 103.496 154.132 103.434C154.087 103.399 149.346 99.9937 148.313 94.385C148.3 94.314 148.273 94.2461 148.233 94.1851C148.193 94.1242 148.141 94.0714 148.08 94.0298C148.018 93.9882 147.949 93.9586 147.875 93.9427C147.802 93.9268 147.726 93.9249 147.652 93.9372C147.503 93.9632 147.37 94.044 147.283 94.1622C147.195 94.2805 147.16 94.4268 147.183 94.5698C147.971 98.3007 150.069 101.662 153.129 104.095C152.794 105.595 151.367 111.787 150.156 115.469C150.13 115.539 150.118 115.613 150.123 115.688C150.127 115.762 150.147 115.834 150.182 115.901C150.217 115.968 150.265 116.027 150.325 116.075C150.384 116.123 150.453 116.158 150.528 116.18L150.624 116.159Z" fill="#D57635"/>
<path d="M158.955 20.7119C158.955 20.7119 156.02 28.9579 160.642 32.1497L161.051 20.8257L158.955 20.7119Z" fill="#26120C"/>
<path d="M163.949 11.8966C163.949 11.8966 174.925 1.54641 187.96 10.091C201.225 18.7777 199.739 40.9708 187.834 43.6649C187.834 43.6649 168.029 27.1587 163.949 11.8966Z" fill="#26120C"/>
<path d="M164.03 33.6419C164.03 33.6419 160.82 31.097 159.883 34.3528C158.947 37.6085 161.221 43.4731 165.086 41.7955L164.03 33.6419Z" fill="#FF7C66"/>
<path d="M173.03 47.9733L174.197 56.1908C174.197 56.1908 180.521 64.4581 192.508 53.4966C190.182 50.2196 188.279 44.1062 188.733 40.7651C187.883 41.2645 187.083 41.8355 186.34 42.4712C186.023 42.7032 185.69 42.9145 185.344 43.1039C182.2 45.0516 177.392 47.561 173.03 47.9733Z" fill="#F69D84"/>
<path d="M173.03 47.9733L173.587 51.8688C177.132 50.4471 183.419 47.3975 186.34 42.4712L185.344 43.1039C182.2 45.0516 177.392 47.561 173.03 47.9733Z" fill="#26120C"/>
<path d="M165.073 46.1531C172.727 53.1764 188.252 41.177 188.72 40.7932C188.72 40.125 188.764 39.4639 188.764 38.817C188.813 33.696 188.059 28.597 186.527 23.6898C186.212 21.244 185.087 18.9588 183.316 17.1683C181.546 15.3778 179.224 14.1757 176.688 13.7378C171.293 12.835 167.146 15.7424 164.567 17.0078C160.673 18.9271 159.031 24.4647 160.354 31.7226C162.003 40.6012 162.955 44.2053 165.073 46.1531Z" fill="#F69D84"/>
<path d="M170.741 23.1073C170.741 23.1073 169.255 23.5125 170.035 24.7423C170.815 25.9721 173.565 24.0314 176.181 26.0645C176.181 26.0645 176.508 22.7376 170.741 23.1073Z" fill="#26120C"/>
<path d="M163.918 24.2732C163.918 24.2732 165.449 24.1595 165.167 25.567C164.884 26.9745 161.592 26.0432 159.883 28.844C159.883 28.844 158.374 25.8229 163.918 24.2732Z" fill="#26120C"/>
<path d="M173.148 33.3293C173.275 33.9975 174.828 34.2961 176.612 33.9975C178.395 33.699 179.74 32.8957 179.584 32.2275C179.428 31.5593 177.912 31.2536 176.129 31.5593C174.345 31.8649 173.022 32.654 173.148 33.3293Z" fill="#FF7C66"/>
<g opacity="0.8">
<path d="M160.197 36.7559C160.449 36.7559 160.709 36.699 160.977 36.6564C162.768 36.3507 164.113 35.5616 163.987 34.8863C163.86 34.211 162.315 33.9195 160.524 34.2252C160.29 34.2599 160.059 34.3098 159.833 34.3745L160.197 36.7559Z" fill="#FF7C66"/>
</g>
<path d="M184.884 37.5801C184.943 37.6796 186.742 40.2742 188.718 40.7932C188.718 40.125 188.763 39.4639 188.763 38.817C187.375 38.7564 186.032 38.3282 184.884 37.5801Z" fill="#26120C"/>
<path d="M185.455 30.8696C185.455 30.8696 188.391 25.2537 191.943 28.6659C194.871 31.5093 192.025 40.6012 186.882 38.5184L185.455 30.8696Z" fill="#F69D84"/>
<path d="M189.623 36.251C189.623 36.251 187.312 42.4213 189.289 42.8833C192.923 43.7363 189.623 36.251 189.623 36.251Z" fill="white"/>
<path d="M187.129 36.9335C187.227 36.9178 187.316 36.8676 187.378 36.7927C187.439 36.7178 187.47 36.6235 187.463 36.5283C187.379 35.408 187.602 34.2861 188.11 33.2737C188.618 32.2613 189.394 31.3934 190.361 30.7561C190.406 30.7295 190.445 30.6947 190.476 30.6537C190.507 30.6127 190.529 30.5662 190.541 30.5171C190.553 30.4679 190.555 30.4169 190.546 30.3671C190.538 30.3172 190.519 30.2695 190.491 30.2265C190.463 30.1836 190.427 30.1463 190.384 30.1168C190.341 30.0873 190.293 30.0662 190.241 30.0546C190.19 30.0431 190.137 30.0413 190.085 30.0495C190.032 30.0576 189.983 30.0755 189.938 30.1021C188.845 30.8137 187.967 31.7868 187.391 32.9244C186.815 34.0619 186.56 35.3242 186.653 36.5852C186.662 36.6864 186.713 36.7801 186.793 36.8464C186.874 36.9128 186.978 36.9465 187.084 36.9406L187.129 36.9335Z" fill="#26120C"/>
<path d="M190.404 34.0044C190.464 33.9938 190.521 33.9704 190.57 33.9359C190.618 33.9015 190.659 33.8568 190.687 33.8054C190.713 33.7616 190.73 33.7134 190.736 33.6634C190.742 33.6134 190.738 33.5628 190.723 33.5144C190.709 33.466 190.684 33.4209 190.651 33.3818C190.618 33.3426 190.577 33.3102 190.531 33.2864C190.352 33.1869 188.725 32.3552 187.558 32.8528C187.509 32.8738 187.465 32.9038 187.429 32.9411C187.392 32.9783 187.363 33.0221 187.344 33.07C187.325 33.1179 187.316 33.1688 187.318 33.22C187.32 33.2711 187.332 33.3215 187.354 33.3682C187.376 33.4149 187.407 33.4569 187.446 33.492C187.485 33.5271 187.531 33.5545 187.581 33.5727C187.631 33.5908 187.684 33.5994 187.738 33.5978C187.791 33.5963 187.844 33.5847 187.893 33.5637C188.547 33.2793 189.713 33.7556 190.122 33.9689C190.209 34.011 190.309 34.0235 190.404 34.0044Z" fill="#26120C"/>
<path d="M171.87 29.924C172.041 30.8481 172.613 31.5234 173.156 31.431C173.698 31.3386 173.996 30.514 173.825 29.5969C173.654 28.6799 173.082 27.9975 172.532 28.0899C171.982 28.1823 171.662 29.0069 171.87 29.924Z" fill="#26120C"/>
<path d="M162.323 31.3533C162.494 32.2774 163.066 32.9527 163.609 32.8603C164.151 32.7679 164.448 31.9433 164.277 31.0192C164.107 30.0951 163.534 29.4269 162.984 29.5193C162.434 29.6117 162.145 30.4292 162.323 31.3533Z" fill="#26120C"/>
<path d="M168.607 39.3713C170.278 38.9819 171.786 38.1168 172.932 36.8904C172.967 36.852 172.994 36.8071 173.011 36.7586C173.028 36.71 173.034 36.6588 173.03 36.6078C173.026 36.5568 173.011 36.5071 172.987 36.4616C172.962 36.4162 172.928 36.3759 172.887 36.3431C172.806 36.279 172.701 36.2477 172.596 36.2556C172.491 36.2636 172.393 36.3102 172.323 36.3857C172.174 36.5492 168.867 40.1817 165.456 37.9638C165.367 37.9063 165.258 37.8849 165.153 37.9042C165.048 37.9236 164.955 37.9821 164.895 38.0669C164.835 38.1518 164.812 38.256 164.832 38.3566C164.853 38.4573 164.914 38.5461 165.003 38.6036C165.519 38.9557 166.104 39.205 166.723 39.3369C167.342 39.4688 167.983 39.4805 168.607 39.3713Z" fill="#26120C"/>
<path d="M181.727 20.6403C181.727 20.6403 181.058 31.5592 184.454 32.2131C188.475 32.9809 188.779 24.3439 186.082 17.4912L181.727 20.6403Z" fill="#26120C"/>
<path d="M183.42 22.8584C183.42 22.8584 167.264 25.0479 164.046 19.0624C164.046 19.0624 162.597 24.3868 159.044 24.7493C159.044 24.7493 156.763 18.8989 163.949 11.9183C163.949 11.9183 181.16 7.43985 185.352 14.3636C189.543 21.2874 183.42 22.8584 183.42 22.8584Z" fill="#26120C"/>
<path d="M171.902 34.1257C171.163 34.1244 170.449 33.8687 169.891 33.4053C169.333 32.9419 168.968 32.3019 168.863 31.6022L168.55 29.5691C168.522 29.3787 168.533 29.1848 168.583 28.9985C168.633 28.8121 168.721 28.6371 168.842 28.4832C168.963 28.3294 169.114 28.1999 169.287 28.102C169.46 28.0041 169.652 27.9399 169.851 27.9128L178.494 26.7115C178.897 26.6566 179.306 26.7567 179.632 26.9899C179.958 27.223 180.174 27.5703 180.233 27.9555L180.537 29.9885C180.654 30.7605 180.446 31.5453 179.958 32.1704C179.471 32.7956 178.743 33.21 177.936 33.3225L172.341 34.0973C172.195 34.1171 172.049 34.1266 171.902 34.1257ZM178.717 27.4081H178.605L169.955 28.6024C169.748 28.634 169.563 28.7416 169.438 28.9023C169.313 29.063 169.258 29.264 169.286 29.4625L169.598 31.4956C169.687 32.0807 170.014 32.6084 170.509 32.9629C171.003 33.3174 171.625 33.4697 172.236 33.3865L177.832 32.6116C178.138 32.5732 178.432 32.4772 178.699 32.3293C178.966 32.1814 179.199 31.9844 179.385 31.7498C179.572 31.5152 179.708 31.2476 179.786 30.9623C179.864 30.6771 179.882 30.38 179.839 30.0881L179.534 28.0479C179.505 27.8633 179.405 27.6957 179.254 27.5775C179.103 27.4593 178.912 27.399 178.717 27.4081Z" fill="white"/>
<path d="M160.65 35.6822C159.912 35.6791 159.2 35.4226 158.644 34.9594C158.087 34.4962 157.723 33.8571 157.618 33.1586L157.306 31.1255C157.249 30.7401 157.353 30.3486 157.597 30.0369C157.841 29.7251 158.204 29.5184 158.606 29.4621L164.433 28.6589C164.632 28.6307 164.835 28.6403 165.03 28.6872C165.225 28.7342 165.409 28.8174 165.57 28.9323C165.732 29.0472 165.868 29.1914 165.971 29.3568C166.075 29.5221 166.143 29.7052 166.172 29.8957L166.476 31.9359C166.534 32.3178 166.513 32.7067 166.413 33.0807C166.314 33.4546 166.138 33.8061 165.897 34.115C165.655 34.424 165.352 34.6844 165.005 34.8813C164.659 35.0783 164.275 35.2079 163.875 35.2627L161.096 35.6466C160.948 35.6692 160.799 35.681 160.65 35.6822ZM164.656 29.3555H164.544L158.71 30.1588C158.608 30.1727 158.509 30.2058 158.42 30.2563C158.331 30.3067 158.253 30.3734 158.191 30.4527C158.129 30.5319 158.084 30.622 158.058 30.718C158.033 30.8139 158.027 30.9138 158.042 31.0118L158.346 33.052C158.436 33.6372 158.766 34.1643 159.262 34.5175C159.758 34.8708 160.38 35.0212 160.992 34.9358L163.771 34.5519C164.074 34.5101 164.365 34.4116 164.628 34.2622C164.891 34.1127 165.12 33.9151 165.303 33.6807C165.486 33.4463 165.619 33.1797 165.694 32.8962C165.769 32.6127 165.785 32.3177 165.741 32.0283L165.436 29.9953C165.403 29.8208 165.306 29.6632 165.164 29.5501C165.021 29.437 164.841 29.3756 164.656 29.3768V29.3555Z" fill="white"/>
<path d="M167.278 34.1466C167.917 34.0391 168.52 33.7827 169.031 33.4002C169.114 33.336 169.167 33.2438 169.179 33.143C169.192 33.0421 169.163 32.9406 169.098 32.8599C169.066 32.8191 169.025 32.785 168.978 32.7596C168.931 32.7342 168.88 32.7181 168.826 32.7121C168.773 32.7061 168.719 32.7105 168.667 32.7249C168.616 32.7393 168.568 32.7634 168.526 32.7959C168.074 33.1315 167.534 33.3429 166.966 33.4073L167.605 29.597C167.613 29.5471 167.611 29.496 167.599 29.4468C167.587 29.3975 167.564 29.3511 167.533 29.3101C167.502 29.2692 167.463 29.2345 167.418 29.2081C167.373 29.1817 167.323 29.1641 167.27 29.1563C167.165 29.1419 167.058 29.1672 166.972 29.2269C166.886 29.2866 166.828 29.376 166.809 29.4762L166.066 33.7414C166.051 33.8473 166.081 33.9546 166.148 34.0399C166.184 34.0814 166.228 34.1154 166.278 34.1398C166.327 34.1643 166.382 34.1787 166.438 34.1821C166.718 34.2071 167.001 34.1951 167.278 34.1466Z" fill="#26120C"/>
<path d="M165.814 29.8101L165.435 29.2058C165.956 28.8753 166.555 28.6714 167.178 28.612C167.801 28.5525 168.429 28.6392 169.009 28.8646L168.734 29.5186C168.259 29.3368 167.745 29.2683 167.236 29.319C166.727 29.3698 166.239 29.5384 165.814 29.8101Z" fill="white"/>
<path d="M179.837 28.3603C179.758 28.3613 179.681 28.3384 179.617 28.295C179.553 28.2515 179.505 28.1898 179.48 28.1186C179.449 28.03 179.456 27.9333 179.499 27.8495C179.542 27.7657 179.618 27.7015 179.71 27.6708C179.904 27.6068 184.348 26.1922 187.885 27.4717C187.931 27.4881 187.973 27.5129 188.009 27.5448C188.045 27.5767 188.074 27.615 188.094 27.6576C188.114 27.7001 188.126 27.7461 188.127 27.7929C188.129 27.8397 188.121 27.8864 188.104 27.9302C188.087 27.9741 188.061 28.0144 188.028 28.0486C187.995 28.0829 187.954 28.1106 187.91 28.1301C187.865 28.1495 187.817 28.1604 187.768 28.1621C187.72 28.1638 187.671 28.1563 187.625 28.1399C184.34 26.9528 180 28.3319 179.963 28.3461L179.837 28.3603Z" fill="white"/>
<path d="M139.408 124.974C139.408 124.974 128.261 120.175 123.178 122.635L125.192 130.774L131.62 133.653C133.574 134.528 133.775 138.096 141.229 138.132L139.408 124.974Z" fill="#F69D84"/>
<path d="M216.148 78.9379C216.089 76.3859 215.933 73.8411 215.65 71.282C215.509 70.0024 215.338 68.7229 215.13 67.4291C215.018 66.7822 214.907 66.1353 214.773 65.4671C214.706 65.1401 214.639 64.7989 214.565 64.4577L214.446 63.9246L214.379 63.6402L214.283 63.2563L194.961 67.8485L195.065 68.3319L195.206 69.0001C195.295 69.4551 195.377 69.9313 195.459 70.4218C195.622 71.3886 195.771 72.3767 195.89 73.3719C196.135 75.3623 196.284 77.3883 196.343 79.4071C196.51 83.4304 196.306 87.46 195.734 91.4491C195.593 92.4372 195.422 93.4253 195.228 94.3992C195.035 95.373 194.834 96.3398 194.597 97.3066C194.359 98.2734 194.099 99.2188 193.816 100.15C193.534 101.081 193.214 102.027 192.88 102.951C192.546 103.875 192.181 104.785 191.802 105.688C191.423 106.59 191.007 107.479 190.569 108.353C190.13 109.228 189.67 110.102 189.179 110.948C188.941 111.375 188.681 111.787 188.436 112.206V112.256C188.258 112.384 188.005 112.555 187.693 112.732C186.974 113.16 186.23 113.547 185.463 113.891C183.593 114.719 181.678 115.452 179.726 116.088C175.617 117.445 171.202 118.597 166.736 119.642C162.27 120.687 157.707 121.654 153.121 122.535C150.833 122.983 148.529 123.409 146.232 123.815L142.769 124.412L141.053 124.703L139.366 124.973L141.194 139.667L143.067 139.496L144.895 139.326C146.114 139.205 147.332 139.07 148.544 138.935C150.966 138.664 153.391 138.373 155.819 138.06C160.664 137.413 165.48 136.674 170.377 135.771C175.275 134.868 180.135 133.824 185.144 132.409C187.758 131.681 190.326 130.81 192.835 129.8L193.69 129.445C194.753 128.99 195.845 128.478 196.99 127.852C197.77 127.428 198.526 126.965 199.256 126.466C200.144 125.869 200.979 125.203 201.753 124.476C202.232 124.029 202.681 123.554 203.098 123.054C203.329 122.77 203.552 122.492 203.782 122.158L203.953 121.917L204.027 121.796L204.168 121.59C204.54 121.035 204.912 120.481 205.261 119.912C205.9 118.903 206.507 117.877 207.082 116.834C207.156 116.713 207.223 116.592 207.29 116.471C207.936 115.306 208.531 114.118 209.11 112.917C209.69 111.716 210.218 110.514 210.708 109.292C212.663 104.436 214.088 99.4002 214.959 94.2641C215.817 89.1978 216.215 84.0699 216.148 78.9379ZM188.473 112.199C188.521 112.145 188.573 112.095 188.629 112.05C188.629 112.05 188.622 112.085 188.473 112.199Z" fill="#F4AD4B"/>
<path d="M207.112 116.813C206.542 117.86 205.935 118.886 205.291 119.891C204.942 120.46 204.548 121.014 204.199 121.568L204.057 121.775L203.983 121.895L203.812 122.137C203.582 122.471 203.359 122.748 203.129 123.033C202.711 123.533 202.262 124.008 201.783 124.455C201.009 125.182 200.174 125.848 199.286 126.445C198.557 126.944 197.8 127.407 197.02 127.831C195.875 128.457 194.79 128.969 193.72 129.423C194.263 117.218 202.645 116.386 207.112 116.813Z" fill="#D57635"/>
<path d="M194.091 117.31C194.181 117.325 194.274 117.319 194.362 117.293C194.45 117.267 194.53 117.222 194.596 117.161C194.65 117.111 194.693 117.05 194.723 116.984C194.752 116.917 194.767 116.846 194.767 116.774C194.767 116.701 194.752 116.63 194.723 116.563C194.693 116.497 194.65 116.436 194.596 116.386C192.472 114.415 190.193 112.602 187.781 110.962C187.72 110.921 187.65 110.891 187.577 110.875C187.504 110.859 187.428 110.858 187.353 110.87C187.279 110.882 187.208 110.908 187.145 110.946C187.081 110.985 187.026 111.035 186.982 111.094C186.939 111.153 186.908 111.219 186.892 111.289C186.875 111.359 186.873 111.432 186.886 111.503C186.899 111.574 186.926 111.642 186.966 111.703C187.006 111.764 187.058 111.816 187.12 111.858C189.484 113.461 191.72 115.232 193.808 117.154C193.885 117.23 193.983 117.285 194.091 117.31Z" fill="#D57635"/>
<path d="M193.02 113.429C193.162 113.452 193.308 113.422 193.428 113.347C193.548 113.271 193.635 113.155 193.669 113.021C193.704 112.887 193.685 112.746 193.615 112.625C193.546 112.505 193.432 112.413 193.295 112.37C193.169 112.334 190.181 111.481 187.833 111.062C187.684 111.035 187.53 111.065 187.405 111.147C187.279 111.228 187.193 111.353 187.164 111.496C187.138 111.639 187.171 111.786 187.258 111.906C187.344 112.025 187.476 112.108 187.625 112.135C189.914 112.548 192.931 113.408 192.961 113.415L193.02 113.429Z" fill="#D57635"/>
<path d="M150.95 123.211C151.031 123.229 151.115 123.229 151.196 123.211C172.427 118.164 186.689 112.363 187.402 111.709C187.46 111.655 187.505 111.589 187.536 111.517C188.026 110.366 199.426 83.2606 197.806 72.3418C197.795 72.2704 197.77 72.2017 197.732 72.1397C197.693 72.0776 197.642 72.0234 197.582 71.9802C197.521 71.9369 197.453 71.9055 197.38 71.8877C197.307 71.8698 197.23 71.8659 197.156 71.8762C197.081 71.8865 197.009 71.9107 196.944 71.9475C196.88 71.9843 196.823 72.033 196.778 72.0908C196.733 72.1485 196.7 72.2142 196.681 72.2841C196.662 72.354 196.658 72.4268 196.669 72.4982C198.207 82.7133 187.476 108.717 186.54 110.956C185.054 111.78 171.186 117.354 150.921 122.152C150.795 122.18 150.683 122.248 150.602 122.345C150.522 122.441 150.478 122.561 150.478 122.685C150.478 122.809 150.522 122.929 150.602 123.025C150.683 123.122 150.795 123.19 150.921 123.218L150.95 123.211Z" fill="#D57635"/>
<path d="M196.886 77.6298C196.996 77.6504 197.111 77.6394 197.215 77.598C197.319 77.5566 197.408 77.4867 197.471 77.3971C197.533 77.3075 197.567 77.2021 197.567 77.0943C197.568 76.9865 197.535 76.881 197.473 76.791L195.526 73.9475C195.437 73.8373 195.309 73.7633 195.166 73.7404C195.022 73.7175 194.876 73.7475 194.755 73.8243C194.634 73.9011 194.548 74.0189 194.514 74.154C194.481 74.2891 194.502 74.4312 194.574 74.5518L196.521 77.3952C196.562 77.4559 196.616 77.5079 196.678 77.5482C196.741 77.5886 196.811 77.6163 196.886 77.6298Z" fill="#D57635"/>
<path d="M150.201 138.927C150.262 138.938 150.325 138.938 150.387 138.927C150.461 138.919 150.533 138.896 150.598 138.86C150.663 138.825 150.72 138.777 150.766 138.72C150.812 138.663 150.845 138.598 150.864 138.529C150.883 138.46 150.888 138.387 150.877 138.316L148.893 123.999C148.873 123.856 148.794 123.727 148.674 123.639C148.555 123.551 148.404 123.512 148.254 123.53C148.104 123.551 147.968 123.628 147.877 123.744C147.785 123.859 147.744 124.005 147.763 124.149L149.748 138.458C149.76 138.573 149.811 138.68 149.893 138.765C149.974 138.85 150.083 138.907 150.201 138.927Z" fill="#D57635"/>
<path d="M141.193 136.61C141.257 136.621 141.322 136.621 141.386 136.61L149.642 135.423C149.717 135.413 149.788 135.39 149.853 135.353C149.917 135.317 149.973 135.268 150.018 135.21C150.062 135.153 150.094 135.087 150.111 135.017C150.128 134.947 150.131 134.875 150.118 134.804C150.096 134.661 150.016 134.532 149.894 134.446C149.773 134.359 149.621 134.322 149.472 134.342L141.193 135.537C141.043 135.558 140.908 135.635 140.818 135.75C140.727 135.866 140.689 136.012 140.71 136.155C140.73 136.27 140.788 136.375 140.875 136.457C140.961 136.539 141.073 136.592 141.193 136.61Z" fill="#D57635"/>
<path d="M143.521 130.952C143.395 131.262 143.402 131.607 143.541 131.913C143.68 132.218 143.94 132.458 144.264 132.58C144.508 132.673 144.775 132.695 145.032 132.643C145.288 132.59 145.523 132.466 145.706 132.286C145.888 132.106 146.011 131.877 146.058 131.63C146.105 131.383 146.073 131.129 145.968 130.899C145.863 130.669 145.689 130.474 145.468 130.338C145.247 130.203 144.988 130.134 144.726 130.14C144.464 130.146 144.209 130.226 143.994 130.37C143.78 130.515 143.615 130.717 143.521 130.952Z" fill="#D57635"/>
</svg>
