<svg width="42" height="43" viewBox="0 0 42 43" fill="none" xmlns="http://www.w3.org/2000/svg">
<path d="M0.15625 38.0622H41.4407V42.1907H0.15625V38.0622ZM4.28469 21.5485H8.41313V35.998H4.28469V21.5485ZM14.6058 21.5485H18.7342V35.998H14.6058V21.5485ZM22.8627 21.5485H26.9911V35.998H22.8627V21.5485ZM33.1838 21.5485H37.3122V35.998H33.1838V21.5485ZM0.15625 11.2274L20.7985 0.90625L41.4407 11.2274V19.4842H0.15625V11.2274ZM4.28469 13.7787V15.3558H37.3122V13.7787L20.7985 5.52185L4.28469 13.7787ZM20.7985 13.2916C20.251 13.2916 19.7259 13.0741 19.3388 12.687C18.9517 12.2999 18.7342 11.7748 18.7342 11.2274C18.7342 10.6799 18.9517 10.1548 19.3388 9.76773C19.7259 9.38061 20.251 9.16313 20.7985 9.16313C21.3459 9.16313 21.871 9.38061 22.2581 9.76773C22.6452 10.1548 22.8627 10.6799 22.8627 11.2274C22.8627 11.7748 22.6452 12.2999 22.2581 12.687C21.871 13.0741 21.3459 13.2916 20.7985 13.2916Z" fill="#FF9429"/>
</svg>
