<svg width="407" height="363" viewBox="0 0 407 363" fill="none" xmlns="http://www.w3.org/2000/svg">
<path d="M226.763 362.409C326.19 362.409 406.791 281.477 406.791 181.643C406.791 81.8087 326.19 0.876953 226.763 0.876953C127.336 0.876953 46.7344 81.8087 46.7344 181.643C46.7344 281.477 127.336 362.409 226.763 362.409Z" fill="#FFE0C0"/>
<path d="M87.5534 295.374L231.815 197.21L239.542 189.333L59.3672 248.721C70.0633 264.934 71.833 283.965 87.5534 295.374Z" fill="#D8BDA3"/>
<path d="M406.651 179.51C406.651 157.875 403.746 138.615 397.912 121.477L226.48 189.334L234.208 197.211L406.496 187.562C406.598 184.91 406.649 182.226 406.651 179.51Z" fill="#D8BDA3"/>
<path d="M405.367 155.528C404.652 151.842 403.824 148.241 402.883 144.723C356.942 159.276 313.836 172.964 276.109 184.327C313.968 174.766 357.642 166.765 405.367 155.528Z" fill="#FFE0C0"/>
<path d="M224.686 209.431L222.727 216.671L363.587 299.262C383.025 276.908 388.8 255.738 398.873 238.807L224.686 209.431Z" fill="#D8BDA3"/>
<path d="M380.108 275.935C383.457 273.215 384.838 265.384 387.884 262.328L235.336 224.362L380.108 275.935Z" fill="#FFE0C0"/>
<path d="M319.608 28.2029L226.48 189.334L234.208 197.211L360.67 61.1373C351.922 52.3898 336.371 34.8949 319.608 28.2029Z" fill="#D8BDA3"/>
<path d="M97.0391 56.0109L231.825 197.211L239.552 189.334L145.872 20.3157C126.899 28.8771 112.826 41.6983 97.0391 56.0109Z" fill="#D8BDA3"/>
<path d="M110.883 43.6242L192.371 130.86L120.342 35.8665C117.095 38.3391 113.942 40.9251 110.883 43.6242Z" fill="#FFE0C0"/>
<path d="M47.7053 168.05C47.702 177.782 46.9714 187.34 48.5287 196.946L231.821 197.211L239.549 189.334L54.5089 127.229C51.3987 140.716 47.7119 154.209 47.7053 168.05Z" fill="#D8BDA3"/>
<path d="M48.6758 163.11L235.268 189.195L49.4769 148.612C49.0206 153.412 48.7535 158.245 48.6758 163.11Z" fill="#FFE0C0"/>
<path d="M165.312 11.6005L197.568 86.7848L181.452 8.6521C176.023 9.34706 170.636 10.3312 165.312 11.6005Z" fill="#D8BDA3"/>
<path d="M275.431 6.70825L246.953 82.9396L281.774 10.5111C279.678 9.25614 277.558 7.98346 275.431 6.70825Z" fill="#D8BDA3"/>
<path d="M403.869 217.338C404.607 214.173 405.251 210.944 405.801 207.651L276.109 203.04L403.869 217.338Z" fill="#D8BDA3"/>
<path d="M48.6758 214.374C50.0076 218.322 51.4704 222.201 53.0642 226.013L158.098 206.928L48.6758 214.374Z" fill="#D8BDA3"/>
<path d="M365.161 228.615C365.161 228.615 390.601 208.255 390.078 202.165C389.555 196.075 388.731 183.266 384.668 178.901C380.799 174.763 367.613 172.74 362.079 177.142C356.545 181.544 357.876 194.267 355.659 196.468C353.443 198.669 354.209 212.521 352.548 214.176C350.888 215.831 365.161 228.615 365.161 228.615Z" fill="#F6AF9A"/>
<path d="M358.12 189.256L365.537 195.744C367.148 195.276 367.667 194.502 367.857 194.122C368.829 192.148 366.95 188.545 362.657 185.653L358.763 182.624C358.495 183.489 358.236 184.453 358.013 185.52C357.791 186.588 357.638 187.589 357.535 188.503L358.12 189.256Z" fill="#EDD3CC"/>
<path d="M261.811 327.031L257.036 359.062C254.976 359.584 249.092 360.539 243.953 361.131C230.042 362.786 202.48 363.659 197.474 358.707C194.038 355.31 203.321 338.189 203.321 338.189C203.321 338.189 240.303 355.521 261.811 327.031Z" fill="#E3E3E3"/>
<path d="M269.104 312.306C268.279 315.756 263.397 331.437 246.297 340.225C229.052 349.087 215.261 344.321 212.645 343.348C212.645 343.348 232.205 182.979 232.205 176.422C231.38 167.861 220.984 157.224 220.984 157.224C220.984 157.224 238.435 154.878 251.587 170.998C259.639 180.865 275.074 184.572 270.488 252.918C268.984 275.23 270.793 305.21 269.104 312.306Z" fill="#E3E3E3"/>
<path d="M222.633 140.377C222.633 140.377 258.893 146.695 260.838 147.75C262.783 148.805 271.774 155.42 263.236 165.35C267.728 169.111 276.422 180.245 275.82 195.586C283.909 208.371 312.649 227.535 316.844 229.926C321.038 232.318 355.247 197.096 355.247 197.096C354.011 198.751 357.414 210.224 357.719 210.952C360.484 217.738 362.837 218.842 370.777 223.679C367.629 228.077 344.896 283.807 331.772 284.966C315.369 286.414 291.363 279.55 285.211 275.28C275.602 268.615 281.68 352.376 281.68 352.376C278.383 353.555 274.823 354.648 271.044 355.711C266.1 357.097 261.431 358.235 257.064 359.058C258.65 348.404 260.241 337.68 261.827 327.031C261.827 327.031 269.355 318.032 269.767 305.686C270.455 285.152 268.193 202.566 266.174 194.44C264.155 186.314 249.453 161.42 225.208 157.15C225.192 157.166 225.575 154.8 222.633 140.377Z" fill="url(#paint0_linear_438_10700)"/>
<path d="M204.581 341.028C204.581 341.028 234.99 342.53 261.658 327.304C261.044 332.393 259.659 341.185 259.659 341.185C259.659 341.185 254.13 350.598 234.158 353.684C217.235 356.295 201.659 352.679 201.433 351.748C201.206 350.817 204.581 341.028 204.581 341.028Z" fill="#121F3E"/>
<path d="M25.0066 197.146C25.0066 197.146 -0.433307 176.786 0.0899952 170.696C0.613298 164.605 1.43742 151.796 5.49611 147.431C9.36525 143.294 22.5549 141.271 28.0846 145.673C33.6143 150.075 32.2916 162.793 34.5043 164.998C36.717 167.204 35.9548 181.051 37.6153 182.702C39.2759 184.353 25.0066 197.146 25.0066 197.146Z" fill="#F6AF9A"/>
<path d="M32.0569 157.788L24.64 164.275C23.8584 163.858 23.2421 163.185 22.8929 162.368C21.9864 160.076 23.717 156.617 27.5202 154.184L31.41 151.156C32.008 153.064 32.422 155.026 32.6461 157.014C32.4319 157.275 32.2382 157.531 32.0569 157.788Z" fill="#EDD3CC"/>
<path d="M229.275 136.612L227.866 165.975L199.777 162.686L197.012 134.916L229.275 136.612Z" fill="#FADED6"/>
<path d="M154.311 224.585C154.311 224.585 143.306 254.548 99.2987 265.425C55.2918 276.302 19.1016 192.301 19.1016 192.301C19.1016 192.301 29.5058 179.612 32.2129 166.695C34.9201 153.778 78.9187 218.528 93.666 211.945C107.787 205.644 136.717 166.124 136.717 166.124C136.717 166.124 161.761 191.954 154.311 224.585Z" fill="url(#paint1_linear_438_10700)"/>
<path d="M176.584 115.798C181.175 114.531 183.679 109.059 182.178 103.575C180.677 98.0906 175.738 94.672 171.148 95.939C166.557 97.206 164.053 102.679 165.554 108.163C167.056 113.647 171.994 117.065 176.584 115.798Z" fill="#FADED6"/>
<path d="M235.502 99.5378C240.093 98.2707 242.597 92.798 241.096 87.314C239.594 81.8301 234.656 78.4115 230.066 79.6785C225.475 80.9455 222.971 86.4183 224.472 91.9023C225.974 97.3863 230.912 100.805 235.502 99.5378Z" fill="#FADED6"/>
<path d="M235.285 99.6284C241.466 122.264 233.95 144.085 218.453 148.363C202.956 152.641 185.374 137.758 179.172 115.119C172.971 92.479 163.214 67.8616 194.154 59.62C226.772 50.9356 229.088 76.9887 235.285 99.6284Z" fill="#FADED6"/>
<path d="M173.887 102.979C160.639 85.6972 157.883 67.6748 165.234 59.3049C166.729 57.6044 169.556 55.2668 174.995 54.1869C175.683 51.4852 177.727 44.9771 183.772 39.9461C194.073 31.361 207.057 34.5675 209.64 35.2295C213.835 36.2721 221.346 38.1256 224.334 44.8075C226.151 48.858 225.492 52.892 224.993 54.9275C227.391 65.8833 229.788 76.8377 232.183 87.7907C227.893 85.8447 224.195 82.7874 221.47 78.9326C218.059 73.999 216.38 68.066 216.699 62.0687C211.911 66.0056 206.46 69.0504 200.604 71.0592C192.074 73.9426 182.951 74.5836 174.105 72.921C175.069 77.6624 175.922 82.8507 176.548 88.4568C177.232 94.6091 176.676 100.72 176.746 105.958C175.502 105.089 174.884 104.315 173.887 102.979Z" fill="#121F3E"/>
<path d="M232.968 90.8159C232.968 90.8159 229.156 100.94 224.978 110.468L210.557 108.023C209.069 107.767 207.541 107.896 206.117 108.397C204.692 108.898 203.418 109.755 202.414 110.886L193.114 121.333C186.402 117.696 180.065 112.872 177.164 107.978L185.092 143.332C185.092 143.332 198.854 158.321 220.85 157.097C239.717 148.855 243.24 124.25 243.24 124.25L232.968 90.8159ZM213.128 127.258C210.367 127.717 206.123 126.844 201.438 125.131L208.917 116.732C208.939 116.706 208.968 116.686 209.001 116.675C209.033 116.663 209.068 116.66 209.102 116.666L220.961 118.677C218.352 123.348 215.616 126.848 213.128 127.258Z" fill="#121F3E"/>
<path d="M122.004 331.467L125.255 289.456L136.042 166.704C141.374 159.008 150.645 148.346 163.007 147.75C164.824 147.659 165.764 147.837 175.62 150.357C195.604 155.467 212.898 160.158 212.898 160.158C212.898 160.158 194.471 312.923 191.772 329.17C190.121 339.073 187.864 348.864 185.014 358.488C175.125 356.502 161.989 352.447 149.813 347.048C140.081 342.734 130.771 337.518 122.004 331.467Z" fill="url(#paint2_linear_438_10700)"/>
<path opacity="0.7" d="M220.983 157.246C220.983 157.246 232.776 168.417 232.178 178.474C231.68 186.915 210.706 362.091 210.706 362.091C207.385 361.955 200.154 361.078 196.569 360.565C195.135 360.358 188.493 359.41 184.986 358.496C184.722 358.426 186.605 352.459 187.223 349.654C188.221 345.128 189.494 338.281 190.594 328.996C195.296 289.364 212.894 160.191 212.894 160.191C212.894 160.191 217.839 161.759 220.983 157.246Z" fill="#00538F"/>
<path d="M163.169 147.746C163.169 147.746 157.866 133.828 173.297 132.926C188.728 132.024 215.693 138.792 217.494 140.298C219.294 141.804 228.578 148.118 221.239 157.295C218.911 159.488 217.489 161.064 213.929 160.427C213.719 160.388 213.511 160.335 213.307 160.27C209.858 159.231 186.31 153.898 174.987 150.29C172.745 149.563 170.462 148.971 168.151 148.515C166.09 148.106 164.356 147.878 163.169 147.746Z" fill="#00538F"/>
<path d="M169.789 148.88C169.789 148.88 167.288 136.497 193.057 144.618C218.827 152.74 213.285 160.253 213.285 160.253L169.789 148.88Z" fill="#89B366"/>
<defs>
<linearGradient id="paint0_linear_438_10700" x1="132.102" y1="50.1099" x2="402.325" y2="347.549" gradientUnits="userSpaceOnUse">
<stop stop-color="#D0BAA4"/>
<stop offset="1" stop-color="#DD730A"/>
</linearGradient>
<linearGradient id="paint1_linear_438_10700" x1="-64.3708" y1="123.125" x2="30.805" y2="331.418" gradientUnits="userSpaceOnUse">
<stop stop-color="#D0BAA4"/>
<stop offset="1" stop-color="#DD730A"/>
</linearGradient>
<linearGradient id="paint2_linear_438_10700" x1="66.4589" y1="60.7376" x2="312.374" y2="233.061" gradientUnits="userSpaceOnUse">
<stop stop-color="#D0BAA4"/>
<stop offset="1" stop-color="#DD730A"/>
</linearGradient>
</defs>
</svg>
