<svg width="503" height="400" viewBox="0 0 503 400" fill="none" xmlns="http://www.w3.org/2000/svg">
<ellipse cx="237.333" cy="384.379" rx="199.758" ry="15.4742" fill="#FFE0C0"/>
<path d="M326.361 316.23C344.775 316.23 359.703 301.302 359.703 282.888C359.703 264.474 344.775 249.546 326.361 249.546C307.947 249.546 293.02 264.474 293.02 282.888C293.02 301.302 307.947 316.23 326.361 316.23Z" fill="#121F3E"/>
<path d="M385.654 202.38C408.851 202.38 427.655 175.955 427.655 143.357C427.655 110.759 408.851 84.333 385.654 84.333C362.457 84.333 343.652 110.759 343.652 143.357C343.652 175.955 362.457 202.38 385.654 202.38Z" fill="url(#paint0_linear_438_10955)"/>
<path d="M257.281 0.336426H178.23C97.1749 0.336426 31.4688 66.0457 31.4688 147.1C31.4688 190.351 66.5291 225.414 109.783 225.414H325.731C368.982 225.414 404.045 190.351 404.045 147.1C404.045 66.0457 338.336 0.336426 257.281 0.336426Z" fill="url(#paint1_linear_438_10955)"/>
<path d="M243.404 385.898H192.117C139.533 385.898 96.9023 343.267 96.9023 290.68C96.9023 277.204 102.255 264.281 111.784 254.753C121.312 245.225 134.235 239.872 147.71 239.872H287.811C301.286 239.872 314.209 245.225 323.738 254.753C333.266 264.281 338.619 277.204 338.619 290.68V290.68C338.619 343.267 295.995 385.898 243.404 385.898Z" fill="url(#paint2_linear_438_10955)"/>
<path d="M329.037 193.759H178.763C158.399 193.759 141.693 178.149 141.693 158.894V129.369C141.693 110.114 158.399 95.0404 178.763 95.6889L329.028 100.48C347.213 101.058 361.791 116.03 361.791 133.921V161.36C361.795 179.248 347.222 193.759 329.037 193.759Z" fill="#DD730A"/>
<path d="M328.466 144.628C328.466 157.057 318.244 166.988 305.534 166.841C292.716 166.678 282.238 156.3 282.238 143.689C282.238 131.078 292.716 121.128 305.534 121.486C318.244 121.844 328.466 132.203 328.466 144.628Z" fill="white"/>
<g style="mix-blend-mode:soft-light" opacity="0.3">
<path d="M272.285 204.83C249.925 178.57 259.869 157.571 230.654 121.99C190.454 73.0283 143.556 78.5704 132.817 45.3628C129.839 36.1601 129.498 23.5331 137.48 6.07324C76.2524 23.7344 31.4688 80.1803 31.4688 147.1C31.4688 190.351 66.5291 225.414 109.783 225.414H297.976C286.707 219.268 278.469 212.091 272.285 204.83Z" fill="white"/>
</g>
<path d="M52.5913 201.972C75.7881 201.972 94.5928 175.546 94.5928 142.948C94.5928 110.35 75.7881 83.9243 52.5913 83.9243C29.3945 83.9243 10.5898 110.35 10.5898 142.948C10.5898 175.546 29.3945 201.972 52.5913 201.972Z" fill="url(#paint3_linear_438_10955)"/>
<path d="M19.3651 168.757C29.5089 168.757 37.7322 157.202 37.7322 142.947C37.7322 128.693 29.5089 117.138 19.3651 117.138C9.22126 117.138 0.998047 128.693 0.998047 142.947C0.998047 157.202 9.22126 168.757 19.3651 168.757Z" fill="url(#paint4_linear_438_10955)"/>
<g style="mix-blend-mode:multiply" opacity="0.4">
<path d="M256.034 333.476C249.007 300.435 171.169 301.23 169.051 279.634C167.422 262.982 212.107 246.497 217.722 244.427C222.514 242.654 227.289 241.156 232.01 239.872H147.71C134.235 239.872 121.312 245.225 111.784 254.753C102.255 264.281 96.9023 277.204 96.9023 290.68V290.68C96.9023 343.267 139.533 385.898 192.117 385.898H243.404C248.256 385.898 253.101 385.531 257.897 384.799C253.425 379.27 250.524 373.216 249.822 366.614C248.26 351.974 258.759 346.282 256.034 333.476Z" fill="#DD730A"/>
</g>
<path d="M219.024 252.507C263.758 252.507 300.022 248.117 300.022 242.701C300.022 237.285 263.758 232.895 219.024 232.895C174.291 232.895 138.027 237.285 138.027 242.701C138.027 248.117 174.291 252.507 219.024 252.507Z" fill="#DD730A"/>
<path d="M115.076 272.024L97.4219 299.012L185.644 356.721L203.298 329.733L115.076 272.024Z" fill="white"/>
<path d="M113.066 316.23C131.481 316.23 146.408 301.302 146.408 282.888C146.408 264.474 131.481 249.546 113.066 249.546C94.6522 249.546 79.7246 264.474 79.7246 282.888C79.7246 301.302 94.6522 316.23 113.066 316.23Z" fill="#121F3E"/>
<path d="M189.227 324.692H266.454L263.388 356.648L187.693 354.115L189.227 324.692Z" fill="white"/>
<path d="M193.056 353.162C203.748 342.471 203.748 325.136 193.056 314.444C182.364 303.752 165.03 303.752 154.338 314.444C143.646 325.136 143.646 342.471 154.338 353.162C165.03 363.854 182.364 363.854 193.056 353.162Z" fill="#121F3E"/>
<path d="M273.19 323.807C268.511 321.188 261.902 319.335 252.6 319.684C250.462 319.761 248.422 320.6 246.848 322.049C245.274 323.498 244.27 325.462 244.017 327.586L241.324 350.435H281.163L282.463 344.976C283.431 340.919 283.05 336.657 281.376 332.837C279.703 329.016 276.829 325.846 273.19 323.807Z" fill="#121F3E"/>
<path d="M343.535 350.978L199.815 348.496C198.841 348.479 197.877 348.698 197.006 349.136C196.135 349.573 195.384 350.215 194.816 351.007L190.43 357.108C189.936 357.796 189.639 358.605 189.57 359.449C189.501 360.293 189.664 361.14 190.039 361.898C190.415 362.657 190.991 363.299 191.704 363.756C192.417 364.212 193.241 364.466 194.088 364.49L346.215 368.722L343.535 350.978Z" fill="#B9B9B9"/>
<path d="M497.798 281.036L349.606 274.136C347.451 274.036 345.307 274.498 343.385 275.477C341.462 276.456 339.827 277.918 338.641 279.72L281.438 366.508L438.158 370.584C440.275 370.64 442.373 370.167 444.261 369.209C446.15 368.25 447.77 366.836 448.974 365.093L501.702 288.91C502.212 288.172 502.516 287.311 502.581 286.417C502.646 285.522 502.47 284.626 502.071 283.822C501.673 283.018 501.067 282.336 500.315 281.846C499.564 281.356 498.694 281.076 497.798 281.036Z" fill="url(#paint5_linear_438_10955)"/>
<path style="mix-blend-mode:multiply" opacity="0.3" d="M338.641 279.72C339.827 277.918 341.462 276.456 343.385 275.477C345.307 274.498 347.451 274.036 349.606 274.136L352.855 274.287C353.024 279.097 354.2 283.55 356.893 287.287C365.29 298.905 380.901 293.11 391.432 305.514C403.002 319.137 390.528 333.623 400.839 346.276C411.7 359.593 431.258 350.626 452.446 360.085L448.974 365.103C447.769 366.845 446.15 368.26 444.261 369.219C442.373 370.178 440.275 370.652 438.158 370.597L281.438 366.508L338.641 279.72Z" fill="url(#paint6_linear_438_10955)"/>
<path d="M226.914 142.565C226.914 155.425 215.971 165.71 202.357 165.538C188.621 165.366 177.396 154.63 177.396 141.559C177.396 128.488 188.621 118.209 202.357 118.595C215.971 118.975 226.914 129.708 226.914 142.565Z" fill="white"/>
<circle cx="404.735" cy="328.109" r="12.6607" fill="white"/>
<defs>
<linearGradient id="paint0_linear_438_10955" x1="292.318" y1="35.6054" x2="437.331" y2="203.271" gradientUnits="userSpaceOnUse">
<stop stop-color="#E0CAB5"/>
<stop offset="1" stop-color="#FF7F00"/>
</linearGradient>
<linearGradient id="paint1_linear_438_10955" x1="-196.212" y1="-92.5711" x2="-13.674" y2="398.379" gradientUnits="userSpaceOnUse">
<stop stop-color="#E0CAB5"/>
<stop offset="1" stop-color="#FF7F00"/>
</linearGradient>
<linearGradient id="paint2_linear_438_10955" x1="-50.8101" y1="179.595" x2="67.6179" y2="498.112" gradientUnits="userSpaceOnUse">
<stop stop-color="#E0CAB5"/>
<stop offset="1" stop-color="#FF7F00"/>
</linearGradient>
<linearGradient id="paint3_linear_438_10955" x1="-40.7441" y1="35.1967" x2="104.268" y2="202.863" gradientUnits="userSpaceOnUse">
<stop stop-color="#E0CAB5"/>
<stop offset="1" stop-color="#FF7F00"/>
</linearGradient>
<linearGradient id="paint4_linear_438_10955" x1="-21.4501" y1="95.8303" x2="41.9601" y2="169.149" gradientUnits="userSpaceOnUse">
<stop stop-color="#E0CAB5"/>
<stop offset="1" stop-color="#FF7F00"/>
</linearGradient>
<linearGradient id="paint5_linear_438_10955" x1="281.437" y1="322.36" x2="502.593" y2="322.36" gradientUnits="userSpaceOnUse">
<stop stop-color="#DDDDDD"/>
<stop offset="1" stop-color="#DCDCDC"/>
</linearGradient>
<linearGradient id="paint6_linear_438_10955" x1="281.438" y1="322.36" x2="452.446" y2="322.36" gradientUnits="userSpaceOnUse">
<stop stop-color="#BEDAC2"/>
<stop offset="1" stop-color="#D1D1D1"/>
</linearGradient>
</defs>
</svg>
