<svg width="73" height="67" viewBox="0 0 73 67" fill="none" xmlns="http://www.w3.org/2000/svg">
<path d="M8.96891 45.5781H3.32089C2.92944 45.5781 2.59391 45.8794 2.53799 46.3012L0.245225 61.8785C0.217265 62.1497 0.385028 62.4209 0.636673 62.451C0.664634 62.451 0.692595 62.451 0.720556 62.451H3.40476C3.79621 62.451 4.13174 62.1497 4.18766 61.7279L4.80279 57.5398C4.85871 57.118 5.19424 56.8167 5.58569 56.8167H7.37516C11.0939 56.8167 13.2469 54.8883 13.8061 51.0317C14.0577 49.3444 13.8061 48.0187 13.0791 47.1148C12.2962 46.1205 10.8702 45.5781 8.96891 45.5781ZM9.63997 51.2727C9.3324 53.4421 7.79457 53.4421 6.2847 53.4421H5.44588L6.03306 49.3745C6.06102 49.1335 6.25674 48.9527 6.50839 48.9527H6.89983C7.90641 48.9527 8.88503 48.9527 9.38832 49.5854C9.66793 49.947 9.75181 50.4893 9.63997 51.2727ZM25.8291 51.2125H23.1169C22.8933 51.2125 22.6975 51.3932 22.6416 51.6343L22.5298 52.4478L22.3341 52.1465C21.7469 51.2426 20.4327 50.9413 19.1465 50.9413C16.1548 50.9413 13.6104 53.3818 13.1071 56.7865C12.8554 58.5039 13.2189 60.131 14.1137 61.2458C14.9245 62.3003 16.1268 62.7222 17.5248 62.7222C19.9294 62.7222 21.2715 61.065 21.2715 61.065L21.1597 61.8785C21.1317 62.1497 21.2995 62.4209 21.5512 62.451C21.5791 62.451 21.6071 62.451 21.635 62.451H24.0676C24.4591 62.451 24.7946 62.1497 24.8505 61.7279L26.3044 51.7548C26.3324 51.4836 26.1646 51.2125 25.913 51.1823C25.885 51.2125 25.8571 51.2125 25.8291 51.2125ZM22.0824 56.8468C21.8308 58.5039 20.6005 59.6188 19.0347 59.6188C18.2518 59.6188 17.6367 59.3476 17.2173 58.8354C16.8258 58.3232 16.6581 57.6 16.7979 56.7865C17.0495 55.1294 18.2798 53.9844 19.8176 53.9844C20.5725 53.9844 21.2156 54.2556 21.6071 54.7678C22.0265 55.3102 22.1942 56.0634 22.0824 56.8468ZM40.2288 51.2125H37.5166C37.265 51.2125 37.0133 51.3631 36.8735 51.574L33.1268 57.5097L31.5331 51.8151C31.4212 51.4535 31.1137 51.2125 30.7781 51.2125H28.1219C27.8702 51.2125 27.6466 51.4234 27.6466 51.7247C27.6466 51.7849 27.6465 51.8452 27.6745 51.8753L30.6663 61.3362L27.8702 65.6146C27.7304 65.8557 27.7584 66.157 27.9821 66.3076C28.066 66.3679 28.1498 66.398 28.2617 66.398H30.9739C31.2255 66.398 31.4771 66.2775 31.6169 66.0365L40.6482 51.9958C40.788 51.7548 40.7321 51.4535 40.5364 51.3028C40.3966 51.2426 40.3127 51.2125 40.2288 51.2125Z" fill="#253B80"/>
<path d="M49.2033 45.5781H43.5553C43.1638 45.5781 42.8283 45.8794 42.7724 46.3012L40.4796 61.8785C40.4516 62.1497 40.6194 62.4209 40.871 62.451C40.899 62.451 40.927 62.451 40.9549 62.451H43.8349C44.1145 62.451 44.3382 62.2401 44.3661 61.9388L45.0092 57.5097C45.0651 57.0878 45.4007 56.7865 45.7921 56.7865H47.5816C51.3003 56.7865 53.4533 54.8582 54.0125 51.0015C54.2641 49.3143 54.0125 47.9885 53.2855 47.0846C52.5026 46.1205 51.0766 45.5781 49.2033 45.5781ZM49.8464 51.2727C49.5388 53.4421 48.001 53.4421 46.4911 53.4421H45.6523L46.2395 49.3745C46.2674 49.1335 46.4632 48.9527 46.7148 48.9527H47.1063C48.1128 48.9527 49.0914 48.9527 49.5947 49.5854C49.8743 49.947 49.9582 50.4893 49.8464 51.2727ZM66.0635 51.2125H63.3513C63.1276 51.2125 62.9319 51.3932 62.876 51.6343L62.7642 52.4478L62.5684 52.1465C61.9813 51.2426 60.6951 50.9413 59.3809 50.9413C56.3891 50.9413 53.8447 53.3818 53.3414 56.7865C53.0898 58.5039 53.4533 60.131 54.348 61.2458C55.1589 62.3003 56.3612 62.7222 57.7592 62.7222C60.1638 62.7222 61.5059 61.065 61.5059 61.065L61.3941 61.8785C61.3661 62.1497 61.5339 62.4209 61.7855 62.451C61.8135 62.451 61.8414 62.451 61.8694 62.451H64.302C64.6934 62.451 65.029 62.1497 65.0849 61.7279L66.5388 51.7548C66.5668 51.4836 66.399 51.2125 66.1474 51.1823C66.0914 51.2125 66.0635 51.2125 66.0635 51.2125ZM62.2888 56.8468C62.0372 58.5039 60.8069 59.6188 59.2411 59.6188C58.4582 59.6188 57.8431 59.3476 57.4237 58.8354C57.0322 58.3232 56.8645 57.6 57.0043 56.7865C57.2559 55.1294 58.4862 53.9844 60.024 53.9844C60.7789 53.9844 61.422 54.2556 61.8135 54.7678C62.2329 55.3102 62.4007 56.0634 62.2888 56.8468ZM69.223 45.9999L66.9023 61.8785C66.8743 62.1497 67.0421 62.4209 67.2938 62.451C67.3217 62.451 67.3497 62.451 67.3776 62.451H69.6984C70.0898 62.451 70.4253 62.1497 70.4813 61.7279L72.774 46.1506C72.802 45.8794 72.6342 45.6083 72.3826 45.5781C72.3546 45.5781 72.3266 45.5781 72.2987 45.5781H69.6984C69.4747 45.5781 69.2789 45.7589 69.223 45.9999Z" fill="#179BD7"/>
<path d="M30.791 36.2077L31.3636 32.1761L30.0656 32.1349H23.8047L28.1568 2.39161C28.195 2.18592 28.3477 2.0625 28.5004 2.0625H39.0753C42.5875 2.0625 44.9926 2.84414 46.2525 4.40741C46.8633 5.14791 47.2069 5.8884 47.3978 6.75232C47.5886 7.61623 47.5886 8.68584 47.3978 9.96114V10.0434V10.8662L48.0086 11.2364C48.4667 11.4833 48.8485 11.8124 49.192 12.2238C49.6883 12.8409 50.0319 13.6225 50.1465 14.5687C50.2992 15.5149 50.261 16.6668 49.9938 17.9832C49.7265 19.4642 49.2684 20.7806 48.6957 21.8502C48.1613 22.7964 47.4741 23.6192 46.6342 24.2774C45.8325 24.8945 44.9163 25.347 43.8855 25.635C42.8547 25.923 41.7095 26.0464 40.4115 26.0464H39.5716C38.9989 26.0464 38.4263 26.2932 37.9682 26.6635C37.51 27.0749 37.2428 27.6508 37.1283 28.2679L37.0519 28.6381L36.0975 35.7551L36.0593 36.002C36.0593 36.0843 36.0212 36.1254 35.983 36.1665C35.9448 36.2077 35.9066 36.2077 35.8685 36.2077H30.791Z" fill="#253B80"/>
<path d="M48.5401 10.125C48.502 10.3307 48.4638 10.5775 48.4256 10.7832C47.0513 18.4762 42.2792 21.1502 36.171 21.1502H33.0787C32.3533 21.1502 31.7043 21.7261 31.5898 22.5078L30.0245 33.3684L29.5664 36.4538C29.4901 36.9063 29.7955 37.3589 30.2154 37.4411C30.2536 37.4411 30.2918 37.4411 30.33 37.4411H35.8274C36.4764 37.4411 37.049 36.9475 37.1254 36.2481L37.1635 35.9601L38.1943 28.8843L38.2707 28.514C38.3852 27.8147 38.9197 27.321 39.5687 27.321H40.4085C45.7151 27.321 49.9145 24.9761 51.1361 18.2705C51.6324 15.473 51.3652 13.087 50.029 11.4414C49.6473 10.8655 49.1128 10.4541 48.5401 10.125Z" fill="#179BD7"/>
<path d="M47.0865 9.51136C46.6284 9.38795 46.2084 9.26453 45.7503 9.18226C44.8341 9.0177 43.9178 8.97656 43.0016 8.97656H34.7555C34.1065 8.97656 33.5338 9.47023 33.4575 10.1696L31.6632 22.1821L31.625 22.5523C31.7395 21.7707 32.3885 21.1948 33.1139 21.1948H36.2062C42.2762 21.1948 47.0483 18.5208 48.4608 10.8278C48.499 10.581 48.5372 10.3753 48.5754 10.1696C48.1936 9.96389 47.8118 9.79934 47.4301 9.63478C47.3155 9.5525 47.201 9.5525 47.0865 9.51136Z" fill="#222D65"/>
<path d="M33.4239 10.1666C33.5385 9.46727 34.0729 8.9736 34.7219 8.9736H43.0062C43.9988 8.9736 44.9151 9.05588 45.7549 9.17929C46.3276 9.26157 46.8621 9.42613 47.4347 9.59068C47.8547 9.75524 48.2364 9.91979 48.58 10.1255C48.9999 7.28691 48.58 5.35339 47.1293 3.58442C45.5641 1.6509 42.7008 0.828125 39.0741 0.828125H28.4992C27.7738 0.828125 27.1248 1.40407 27.0103 2.18571L22.62 32.217C22.5436 32.7518 22.8872 33.2455 23.3835 33.3277C23.4217 33.3277 23.4599 33.3277 23.5362 33.3277H30.0262L31.6678 22.138C31.6678 22.1791 33.4239 10.1666 33.4239 10.1666Z" fill="#253B80"/>
</svg>
