<svg width="171" height="171" viewBox="0 0 171 171" fill="none" xmlns="http://www.w3.org/2000/svg">
<path fill-rule="evenodd" clip-rule="evenodd" d="M0.625 85.7056C0.625 85.7056 0.625 85.7056 0.625 85.7056C0.625 63.1698 9.5773 41.5571 25.5125 25.6219C41.4477 9.68667 63.0604 0.734375 85.5962 0.734375C108.132 0.734375 129.745 9.68667 145.68 25.6219C161.615 41.5571 170.567 63.1698 170.567 85.7056C170.567 108.241 161.615 129.854 145.68 145.789C129.745 161.724 108.132 170.677 85.5962 170.677C63.0604 170.677 41.4477 161.724 25.5125 145.789C9.5773 129.854 0.625 108.241 0.625 85.7056C0.625 85.7056 0.625 85.7056 0.625 85.7056ZM80.7472 122.075C80.7472 122.074 80.7475 122.073 80.7482 122.072L126.133 65.3356C128.085 62.895 127.69 59.334 125.249 57.3816C122.809 55.4294 119.248 55.8248 117.296 58.2647L91.2501 90.8111C84.5876 99.1364 72.3876 100.368 64.1955 93.5424L53.9192 84.9801C51.5163 82.978 47.9453 83.3028 45.943 85.7055C43.9407 88.1083 44.2652 91.6794 46.6679 93.6818L80.7397 122.078C80.7427 122.081 80.7472 122.079 80.7472 122.075Z" fill="#00538F"/>
</svg>
