<?xml version="1.0" encoding="UTF-8"?>
<!DOCTYPE svg PUBLIC "-//W3C//DTD SVG 1.1//EN" "http://www.w3.org/Graphics/SVG/1.1/DTD/svg11.dtd">
<!-- Creator: CorelDRAW 2021 (64-Bit) -->
<svg xmlns="http://www.w3.org/2000/svg" xml:space="preserve" width="4.26666in" height="2.4in" version="1.1" style="shape-rendering:geometricPrecision; text-rendering:geometricPrecision; image-rendering:optimizeQuality; fill-rule:evenodd; clip-rule:evenodd"
viewBox="0 0 4266.66 2400"
 xmlns:xlink="http://www.w3.org/1999/xlink"
 xmlns:xodm="http://www.corel.com/coreldraw/odm/2003">
 <defs>
  <style type="text/css">
   <![CDATA[
    .fil0 {fill:#00538F}
    .fil2 {fill:#DD730A}
    .fil1 {fill:white}
   ]]>
  </style>
 </defs>
 <g id="Layer_x0020_1">
  <metadata id="CorelCorpID_0Corel-Layer"/>
  <rect class="fil0" x="-30" y="-19.29" width="4328.6" height="2419.28"/>
  <path class="fil1" d="M65.18 1045.94c0,34.33 0.74,63.58 17.25,94.22 10.24,19 23.28,30.74 37.78,45.17 19.99,19.9 51.86,35.04 78.27,46.17 31.46,13.26 63.46,21.06 97.42,29.61 55.51,13.98 168.51,24.13 168.51,85.55 0,35.74 -7.44,58.4 -42.28,76.97 -62.24,33.17 -202.86,28.87 -238.5,-55.42 -5.95,-14.08 -11.75,-42.17 -12.15,-60.43l-42.18 35.59c-16.19,15.63 -61.69,54.15 -69.3,65.51 9.31,39.98 58.81,91.75 97.68,114.91 106.28,63.31 252.7,60.97 351.37,-5.47 47.81,-32.19 87.59,-91.25 87.59,-150.91 0,-46.68 -1.35,-67.69 -26.03,-108.78 -46.71,-77.76 -141.46,-95.61 -220.2,-114.22 -56.86,-13.43 -186.06,-28.41 -148.72,-114.93 6.17,-14.28 15.44,-22.26 26.8,-30.23 50.67,-35.56 143.76,-35.14 191.13,3.35 2.46,2 4.46,3.72 6.95,6.02 21.24,19.56 30.08,48.21 30.08,78.8 8.48,-2.26 8.95,-4.83 14.91,-11.01 6.13,-6.36 7.57,-6.81 13.99,-11.93l79.98 -75.57c-16.93,-72.65 -136.47,-139.99 -220.36,-139.99 -79.72,0 -137.56,6.55 -203.36,55.88 -41.22,30.9 -76.62,87.5 -76.62,141.14z"/>
  <path class="fil1" d="M2229.86 1439.98c-41.81,0 -71.17,-8.95 -97.46,-42.53 -43.99,-56.19 -42.64,-129.26 0.39,-186.76 18.55,-24.78 50.53,-42.92 89.3,-42.92 49.99,0 91.18,37.76 107.5,79.16 6.03,15.3 10.06,35.58 11.47,53.51 2.33,29.69 -12.47,69.66 -30.02,93.67 -15.02,20.53 -47.11,45.87 -81.17,45.87zm-256.65 -137.4c0,36.15 8.91,78.38 19.98,104.46 21.37,50.35 40.32,72.43 79.19,107.46 31.02,27.95 91.46,52.5 136.74,52.5 82.51,0 109.31,-17.39 168.51,-57.04l88.14 51.85 0 -518.48 -124.44 0 0 31.11c-89.48,-47.35 -179.47,-47.12 -262.6,14.79 -58.61,43.65 -105.52,123.2 -105.52,213.35z"/>
  <path class="fil1" d="M884.39 1180.74c46.37,0 76.79,7.85 108.16,44.8 7.35,8.65 11.06,17.93 16.28,27.8l-222.95 0c3.96,-17.01 23.7,-40.32 36.25,-49.3 14.78,-10.57 37.09,-23.29 62.26,-23.29zm-238.51 124.44c0,132.01 112.63,248.87 235.91,248.87 66.08,0 113.33,-9.29 163.71,-48.86 28.24,-22.19 72.05,-67.49 79.98,-101.5 -44.15,0 -83.31,-2.32 -124.46,-2.61 -35.06,-0.25 -25.07,3.09 -46.69,15.53 -22.14,12.76 -44.17,13 -69.95,13 -29.04,0 -47.92,-9.85 -65.91,-22.23 -21.78,-14.99 -24.1,-29.83 -35.19,-52.95l357.76 0c25.87,-111.06 -32.55,-224.45 -133.91,-273.1 -84.64,-40.63 -184.29,-33.6 -260.91,23.46 -59.91,44.61 -100.34,124.57 -100.34,200.38z"/>
  <path class="fil1" d="M3834.57 1180.74c35.75,0 53.65,0.5 85.63,23.26 11.93,8.49 35.11,33.44 38.81,49.33l-222.95 0c7.5,-32.19 55.69,-72.59 98.51,-72.59zm-2.59 373.31c69.97,0 108.3,-8.2 163.73,-48.85 26.04,-19.1 71.9,-66.93 79.96,-101.51 -24.81,0 -138.93,-7.33 -152.35,0.6 -33.04,19.52 -31.26,25.32 -88.74,25.32 -46.03,0 -95.1,-34.21 -98.51,-75.18l350.01 0.03c10.97,-2.33 7.06,-4 8.69,-17.24 14.38,-116.98 -41.91,-207.72 -137.45,-255.88 -55.51,-27.98 -143.27,-35.87 -203.06,-9.45 -206.39,91.21 -205.05,361.78 -19.11,457.15 22.54,11.56 64.09,25 96.84,25z"/>
  <path class="fil1" d="M2546.13 1561.83l127.03 0 0 -277.39c0,-76.65 79.84,-137.74 160.46,-103.43 37.99,16.17 67.68,58.19 67.68,103.43l0 277.39 127.03 0 0 -267.02c0,-63.41 -22.7,-130.6 -64.12,-171.79 -31.76,-31.57 -65.32,-56.57 -110.05,-68.82 -60.28,-16.51 -119.24,-9.71 -174.96,15.92 -42.8,19.68 -24.72,30.66 -78.73,-0.73 -9.48,-5.51 -44.5,-23.75 -54.33,-26.04l0 518.48z"/>
  <path class="fil1" d="M3080.17 1289.62l0 23.33c0,97.75 61.52,183.35 140.06,228.06 67.71,38.53 163.52,32.78 229.57,-6.2 32.11,-18.95 51.83,-37.95 75.48,-67.1 16.46,-20.28 24.21,-40.03 34.48,-61.44 -15.64,-7.5 -107.56,-45.69 -119.25,-46.67 -1.56,18.8 -25.16,42.82 -36.9,53.84 -72.35,67.94 -196.42,2.41 -196.42,-100.5 0,-42.83 2.54,-68.02 28.83,-103.39 36.68,-49.33 104.46,-64.09 154.24,-30.43 13.42,9.07 19.49,12.91 29.19,25.25 8.51,10.84 17.51,20.72 21.06,35.97 10.81,-0.9 103.48,-39.69 116.66,-46.66 -2.37,-28.5 -52.55,-87.23 -77.72,-106.34 -58.41,-44.37 -94.89,-51.8 -168.56,-51.8 -42.63,0 -96.57,25.24 -128.56,50.31 -7.07,5.54 -9.8,9.3 -16.61,14.49l-28.56 31.06c-4.52,5.9 -8.75,11.79 -12.95,18.16 -24.2,36.7 -44.04,91.04 -44.04,140.03z"/>
  <path class="fil1" d="M1436.57 1045.94l-44.07 0 0 124.43 38.89 0 0 391.46c15.67,-3.65 71.96,-28.26 94.81,-37.4 11.31,-4.53 20.64,-9.16 32.22,-11.85l0 -342.2 121.85 0 0 -124.43 -111.47 0c5.04,-21.67 38.09,-49.26 64.81,-49.26 39.28,0 25.43,5.42 46.67,10.37 7.54,-5.53 67.93,-94.83 70,-103.7 -105.1,-70.38 -238.07,-23.08 -289.51,73.43 -8.44,15.84 -23.69,47.67 -24.17,69.15z"/>
  <path class="fil1" d="M1203.26 1561.83c9.44,-2.2 21.93,-8.24 31.85,-12.22l66.29 -27.04c7.74,-3.08 28.89,-8.31 28.89,-17.77l0 -642.92c0,-5.97 -1.8,-7.78 -7.78,-7.78l-119.25 0 0 707.73z"/>
  <path class="fil1" d="M1879.88 1162.19l-2.59 3 -2.59 3.01 -18.15 14.88 -2.62 2.8 -2.65 3.03 -20.65 17.34 -2.59 3.01 -41.09 36.69c-26.5,21.14 -21.14,13.57 -21.13,56.65l0 264.43c20.05,-4.67 111.2,-45.57 127.03,-49.26l0 -362.74 -2.7 -0.08 -10.26 7.26z"/>
  <path class="fil2" d="M1828.03 1206.67l2.59 -0.42 20.65 -17.34c0,-3.93 -1.06,-3.09 2.65,-3.03l2.62 -2.8 18.15 -14.88 2.59 -3.01 2.59 -3 10.26 -7.26 2.7 -2.41c21.03,-15.65 47.69,-44.46 62.22,-52.15l0.09 -230.81c0.44,-25.53 2.19,-23.77 -23.33,-23.33 -27,0.46 -69.08,-2.78 -93.69,-0.17 -14.02,1.48 -10.19,6.77 -10.11,33.96l0 326.65z"/>
  <path class="fil2" d="M4111.96 1499.61c0,42.85 25.31,69.66 62.72,71.88 31.85,1.89 66.9,-27.63 66.9,-58.91 0,-22.34 1.09,-34.76 -19.98,-55.2 -39.47,-38.3 -109.65,-9.19 -109.65,42.24z"/>
  <path class="fil1" d="M1853.93 1185.88c-3.71,-0.06 -2.65,-0.91 -2.65,3.03l2.65 -3.03z"/>
  <polygon class="fil1" points="1892.84,1155.01 1892.84,1152.52 1890.14,1154.93 "/>
  <polygon class="fil1" points="1830.63,1206.25 1828.03,1206.67 1828.03,1209.26 "/>
  <polygon class="fil1" points="1879.88,1162.19 1877.29,1165.19 "/>
  <polygon class="fil1" points="1877.29,1165.19 1874.69,1168.2 "/>
  <polygon class="fil1" points="1856.55,1183.08 1853.93,1185.88 "/>
 </g>
</svg>
