<?xml version="1.0" encoding="UTF-8"?>
<!DOCTYPE svg PUBLIC "-//W3C//DTD SVG 1.1//EN" "http://www.w3.org/Graphics/SVG/1.1/DTD/svg11.dtd">
<!-- Creator: CorelDRAW 2021 (64-Bit) -->
<svg xmlns="http://www.w3.org/2000/svg" xml:space="preserve" width="4.26666in" height="2.4in" version="1.1" style="shape-rendering:geometricPrecision; text-rendering:geometricPrecision; image-rendering:optimizeQuality; fill-rule:evenodd; clip-rule:evenodd"
viewBox="0 0 4266.66 2400"
 xmlns:xlink="http://www.w3.org/1999/xlink"
 xmlns:xodm="http://www.corel.com/coreldraw/odm/2003">
 <defs>
  <style type="text/css">
   <![CDATA[
    .fil0 {fill:#00538F}
    .fil3 {fill:#6B624F}
    .fil2 {fill:#86663E}
    .fil1 {fill:#DD730A}
   ]]>
  </style>
 </defs>
 <g id="Layer_x0020_1">
  <metadata id="CorelCorpID_0Corel-Layer"/>
  <path class="fil0" d="M140.31 1083.57c0,32.91 0.72,60.96 16.54,90.33 9.81,18.21 22.32,29.47 36.22,43.31 19.17,19.08 49.72,33.59 75.04,44.26 30.16,12.71 60.85,20.2 93.4,28.39 53.22,13.4 161.55,23.14 161.55,82.02 0,34.26 -7.14,55.99 -40.54,73.79 -59.67,31.8 -194.48,27.68 -228.65,-53.13 -5.71,-13.5 -11.26,-40.43 -11.65,-57.94l-40.44 34.13c-15.52,14.99 -59.13,51.91 -66.43,62.8 8.93,38.33 56.38,87.96 93.64,110.16 101.89,60.7 242.27,58.46 336.86,-5.24 45.83,-30.86 83.97,-87.48 83.97,-144.68 0,-44.75 -1.3,-64.9 -24.95,-104.29 -44.78,-74.55 -135.62,-91.66 -211.12,-109.5 -54.51,-12.88 -178.38,-27.24 -142.58,-110.18 5.91,-13.69 14.8,-21.34 25.69,-28.98 48.58,-34.09 137.83,-33.69 183.24,3.22 2.35,1.91 4.27,3.57 6.66,5.77 20.36,18.75 28.84,46.22 28.84,75.55 8.13,-2.17 8.58,-4.63 14.3,-10.56 5.87,-6.1 7.26,-6.53 13.41,-11.44l76.68 -72.44c-16.23,-69.65 -130.84,-134.21 -211.26,-134.21 -76.44,0 -131.89,6.28 -194.96,53.57 -39.51,29.63 -73.46,83.89 -73.46,135.31z"/>
  <path class="fil0" d="M2215.61 1461.35c-40.08,0 -68.23,-8.58 -93.44,-40.77 -42.17,-53.87 -40.88,-123.92 0.37,-179.05 17.78,-23.76 48.44,-41.14 85.61,-41.14 47.93,0 87.41,36.2 103.06,75.89 5.78,14.67 9.65,34.11 11,51.3 2.24,28.47 -11.95,66.79 -28.78,89.8 -14.39,19.68 -45.17,43.97 -77.81,43.97zm-246.06 -131.73c0,34.67 8.55,75.15 19.15,100.15 20.49,48.27 38.66,69.44 75.92,103.03 29.74,26.8 87.68,50.34 131.1,50.34 79.11,0 104.8,-16.68 161.55,-54.68l84.51 49.71 0 -497.07 -119.3 0 0 29.82c-85.79,-45.39 -172.06,-45.18 -251.76,14.18 -56.19,41.85 -101.17,118.11 -101.17,204.54z"/>
  <path class="fil0" d="M925.69 1212.81c44.46,0 73.62,7.52 103.69,42.94 7.05,8.29 10.6,17.19 15.61,26.65l-213.74 0c3.8,-16.3 22.72,-38.66 34.75,-47.27 14.17,-10.14 35.56,-22.32 59.69,-22.32zm-228.66 119.3c0,126.56 107.98,238.59 226.17,238.59 63.35,0 108.65,-8.91 156.95,-46.85 27.08,-21.28 69.07,-64.7 76.67,-97.3 -42.33,0 -79.87,-2.22 -119.32,-2.5 -33.61,-0.24 -24.04,2.96 -44.76,14.89 -21.23,12.23 -42.35,12.47 -67.07,12.47 -27.84,0 -45.94,-9.44 -63.19,-21.31 -20.88,-14.37 -23.11,-28.6 -33.74,-50.76l342.98 0c24.8,-106.47 -31.21,-215.18 -128.38,-261.83 -81.15,-38.95 -176.68,-32.21 -250.14,22.5 -57.44,42.77 -96.2,119.43 -96.2,192.11z"/>
  <path class="fil0" d="M3754.07 1212.81c34.27,0 51.43,0.48 82.09,22.3 11.44,8.14 33.67,32.06 37.21,47.29l-213.74 0c7.19,-30.86 53.39,-69.59 94.44,-69.59zm-2.48 357.89c67.08,0 103.82,-7.86 156.97,-46.83 24.96,-18.31 68.93,-64.16 76.65,-97.32 -23.79,0 -133.19,-7.03 -146.06,0.57 -31.68,18.72 -29.97,24.28 -85.08,24.28 -44.13,0 -91.17,-32.8 -94.44,-72.08l335.56 0.03c10.52,-2.24 6.77,-3.84 8.33,-16.52 13.79,-112.15 -40.18,-199.14 -131.78,-245.31 -53.21,-26.83 -137.35,-34.39 -194.67,-9.06 -197.86,87.44 -196.58,346.84 -18.31,438.27 21.61,11.09 61.44,23.97 92.84,23.97z"/>
  <path class="fil0" d="M2518.83 1578.16l121.78 0 0 -265.93c0,-73.49 76.55,-132.06 153.83,-99.16 36.42,15.51 64.88,55.79 64.88,99.16l0 265.93 121.78 0 0 -255.99c0,-60.79 -21.77,-125.21 -61.48,-164.7 -30.45,-30.27 -62.63,-54.24 -105.51,-65.98 -57.78,-15.83 -114.31,-9.31 -167.73,15.26 -41.03,18.87 -23.7,29.39 -75.48,-0.7 -9.09,-5.28 -42.67,-22.77 -52.08,-24.96l0 497.07z"/>
  <path class="fil0" d="M3030.82 1317.2l0 22.37c0,93.72 58.98,175.79 134.28,218.65 64.91,36.94 156.78,31.43 220.09,-5.94 30.79,-18.17 49.7,-36.39 72.37,-64.33 15.78,-19.44 23.21,-38.38 33.06,-58.9 -15,-7.19 -103.12,-43.8 -114.33,-44.74 -1.5,18.03 -24.12,41.05 -35.37,51.61 -69.36,65.13 -188.31,2.31 -188.31,-96.35 0,-41.06 2.44,-65.21 27.64,-99.11 35.16,-47.3 100.14,-61.44 147.87,-29.18 12.87,8.7 18.69,12.37 27.98,24.21 8.16,10.39 16.78,19.87 20.19,34.48 10.36,-0.86 99.2,-38.04 111.84,-44.74 -2.27,-27.32 -50.38,-83.62 -74.51,-101.95 -56,-42.53 -90.98,-49.66 -161.6,-49.66 -40.87,0 -92.58,24.2 -123.26,48.24 -6.78,5.31 -9.39,8.92 -15.93,13.89l-27.38 29.78c-4.33,5.65 -8.39,11.3 -12.42,17.41 -23.2,35.18 -42.22,87.28 -42.22,134.24z"/>
  <path class="fil0" d="M1455.08 1083.57l-42.25 0 0 119.3 37.28 0 0 375.29c15.02,-3.5 68.99,-27.09 90.9,-35.86 10.84,-4.34 19.79,-8.78 30.89,-11.36l0 -328.07 116.81 0 0 -119.3 -106.87 0c4.84,-20.77 36.52,-47.22 62.13,-47.22 37.66,0 24.39,5.2 44.74,9.94 7.23,-5.3 65.12,-90.91 67.11,-99.42 -100.76,-67.47 -228.24,-22.13 -277.56,70.4 -8.1,15.19 -22.72,45.7 -23.17,66.3z"/>
  <path class="fil0" d="M1231.4 1578.16c9.05,-2.11 21.02,-7.9 30.54,-11.71l63.55 -25.93c7.42,-2.96 27.7,-7.96 27.7,-17.04l0 -616.37c0,-5.73 -1.73,-7.46 -7.46,-7.46l-114.33 0 0 678.51z"/>
  <path class="fil0" d="M1880.08 1195.03l-2.48 2.87 -2.49 2.89 -17.4 14.27 -2.51 2.69 -2.54 2.9 -19.8 16.62 -2.49 2.89 -39.4 35.17c-25.4,20.27 -20.26,13 -20.25,54.3l0 253.51c19.22,-4.48 106.6,-43.69 121.79,-47.22l0 -347.76 -2.59 -0.08 -9.83 6.96z"/>
  <path class="fil1" d="M1830.37 1237.67l2.49 -0.4 19.8 -16.62c0,-3.77 -1.01,-2.96 2.54,-2.9l2.51 -2.69 17.4 -14.27 2.49 -2.89 2.48 -2.87 9.83 -6.96 2.59 -2.31c20.16,-15 45.71,-42.62 59.65,-49.99l0.08 -221.29c0.43,-24.47 2.1,-22.79 -22.37,-22.37 -25.89,0.44 -66.22,-2.67 -89.81,-0.17 -13.44,1.42 -9.78,6.48 -9.69,32.56l0 313.16z"/>
  <path class="fil0" d="M4020 1518.51c0,41.09 24.27,66.78 60.14,68.91 30.54,1.81 64.13,-26.49 64.13,-56.48 0,-21.42 1.05,-33.32 -19.15,-52.93 -37.83,-36.72 -105.12,-8.81 -105.12,40.5z"/>
  <path class="fil2" d="M1855.2 1217.74c-3.56,-0.06 -2.54,-0.87 -2.54,2.9l2.54 -2.9z"/>
  <polygon class="fil2" points="1892.51,1188.15 1892.51,1185.76 1889.92,1188.07 "/>
  <polygon class="fil3" points="1832.86,1237.26 1830.37,1237.67 1830.37,1240.15 "/>
  <polygon class="fil2" points="1880.08,1195.03 1877.6,1197.9 "/>
  <polygon class="fil3" points="1877.6,1197.9 1875.11,1200.79 "/>
  <polygon class="fil2" points="1857.71,1215.06 1855.2,1217.74 "/>
 </g>
</svg>
