<svg width="443" height="378" viewBox="0 0 443 378" fill="none" xmlns="http://www.w3.org/2000/svg">
<path d="M211.416 362.766C213.087 368.158 211.528 374.04 208.196 375.073C204.864 376.106 201.687 374.652 200.016 369.259C198.345 363.866 199.65 361.099 202.982 360.066C206.314 359.034 209.745 357.373 211.416 362.766Z" fill="#00538F"/>
<path d="M377.57 325.011C369.873 331.991 358.848 333.962 354.535 329.206C350.222 324.45 350.179 318.02 357.876 311.04C365.573 304.06 371.205 304.087 375.517 308.843C379.83 313.599 385.267 318.031 377.57 325.011Z" fill="#3E7DC3" fill-opacity="0.19"/>
<path d="M94.5493 358.673C83.8768 368.351 65.3488 367.509 55.8696 357.056C46.3904 346.603 43.7178 334.807 54.3903 325.129C65.0628 315.451 74.9439 317.774 84.4231 328.227C93.9022 338.68 105.222 348.994 94.5493 358.673Z" fill="#3E7DC3" fill-opacity="0.19"/>
<path d="M95.4631 231.539C97.1344 236.932 95.5748 242.814 92.2428 243.847C88.9109 244.879 85.7342 243.425 84.0629 238.032C82.3916 232.64 83.6972 229.872 87.0292 228.84C90.3611 227.807 93.7918 226.146 95.4631 231.539Z" fill="#00538F"/>
<path d="M388.634 141.384C387.469 126.669 399.838 112.165 414.34 111.017C428.841 109.869 440.147 115.083 441.312 129.798C442.476 144.513 434.352 151.075 419.85 152.223C405.348 153.371 389.799 156.099 388.634 141.384Z" fill="#3E7DC3" fill-opacity="0.6"/>
<path d="M22.6624 112.58C19.725 115.708 12.8655 111.93 9.30976 108.374C5.75401 104.818 1.25445 97.8159 6.4359 92.6344C11.6174 87.453 18.553 94.6237 22.1087 98.1795C25.6645 101.735 25.5997 109.453 22.6624 112.58Z" fill="#3E7DC3" fill-opacity="0.5"/>
<path d="M166.375 50.5656C158.678 57.5457 147.653 59.5163 143.34 54.7605C139.027 50.0047 138.984 43.5749 146.681 36.5948C154.378 29.6148 160.009 29.6418 164.322 34.3976C168.635 39.1534 174.072 43.5856 166.375 50.5656Z" fill="#3E7DC3" fill-opacity="0.19"/>
<path d="M302.751 4.67095C304.139 9.84905 300.679 15.8452 295.576 17.2126C290.473 18.5799 286.091 17.4643 284.704 12.2862C283.316 7.10808 285.785 4.22828 290.888 2.8609C295.991 1.49353 301.364 -0.507142 302.751 4.67095Z" fill="#3E7DC3" fill-opacity="0.1"/>
<g clip-path="url(#clip0_822_11282)">
<path fill-rule="evenodd" clip-rule="evenodd" d="M131.625 210.706C131.625 210.706 131.625 210.706 131.625 210.706C131.625 188.17 140.577 166.557 156.512 150.622C172.448 134.687 194.06 125.734 216.596 125.734C239.132 125.734 260.745 134.687 276.68 150.622C292.615 166.557 301.567 188.17 301.567 210.706C301.567 233.241 292.615 254.854 276.68 270.789C260.745 286.724 239.132 295.677 216.596 295.677C194.06 295.677 172.448 286.724 156.512 270.789C140.577 254.854 131.625 233.241 131.625 210.706C131.625 210.706 131.625 210.706 131.625 210.706ZM211.747 247.075C211.747 247.074 211.748 247.073 211.748 247.072L257.133 190.336C259.085 187.895 258.69 184.334 256.249 182.382C253.809 180.429 250.248 180.825 248.296 183.265L222.25 215.811C215.588 224.136 203.388 225.368 195.196 218.542L184.919 209.98C182.516 207.978 178.945 208.303 176.943 210.706C174.941 213.108 175.265 216.679 177.668 218.682L211.74 247.078C211.743 247.081 211.747 247.079 211.747 247.075Z" fill="#00538F"/>
</g>
<defs>
<clipPath id="clip0_822_11282">
<rect width="169.942" height="169.942" fill="white" transform="translate(131.625 125.734)"/>
</clipPath>
</defs>
</svg>
